<svg xmlns="http://www.w3.org/2000/svg" viewBox="0 0 78.3 19.4"><defs><style>.cls-1{fill:#fff;}</style></defs><title>Alimentation_generale_white</title><g id="Calque_2" data-name="Calque 2"><g id="Calque_1-2" data-name="Calque 1"><path class="cls-1" d="M17.34,7V2.76l-3.05.82,0,.07c.91-.21,1.06.08,1.06.8V7c0,1.14-.1,1.36-.93,1.36v.07h3.83V8.37c-.83,0-.93-.22-.93-1.36"/><path class="cls-1" d="M28.3,7V4.33c0-1.09-.33-1.57-1.18-1.57a3.92,3.92,0,0,0-2.33,1.15c-.09-.79-.42-1.15-1.15-1.15a3.79,3.79,0,0,0-2.32,1.15l0-1.15-3.08.82,0,.07c.91-.21,1.06.08,1.06.8V7c0,1.14-.09,1.36-.93,1.36v.07h3.5V8.37c-.58,0-.59-.47-.59-1.15V4a1.58,1.58,0,0,1,.91-.42c.59,0,.59.61.59,1V7.22c0,.86,0,1.15-.57,1.15v.07h3.13V8.37c-.57,0-.58-.29-.58-1.15V4.33c0-.11,0-.22,0-.31a1.67,1.67,0,0,1,.92-.43c.6,0,.6.61.6,1V7.22c0,.86,0,1.15-.58,1.15v.07h3.48V8.37c-.83,0-.92-.22-.92-1.36"/><path class="cls-1" d="M16.35,2.31A1.16,1.16,0,0,0,17.5,1.14,1.14,1.14,0,0,0,16.35,0,1.15,1.15,0,0,0,15.2,1.14a1.17,1.17,0,0,0,1.15,1.17"/><path class="cls-1" d="M13.36,7V0L10.3.82l0,.08c.91-.22,1.06.07,1.06.79V7c0,1.14-.1,1.36-.93,1.36v.07h3.84V8.37c-.84,0-.93-.22-.93-1.36"/><path class="cls-1" d="M59.79,2.31a1.16,1.16,0,0,0,1.15-1.17A1.14,1.14,0,0,0,59.79,0a1.16,1.16,0,0,0-1.16,1.14,1.18,1.18,0,0,0,1.16,1.17"/><path class="cls-1" d="M5.77,5.66a6.25,6.25,0,0,1-2.09-.23c.41-.95.89-1.9,1-2.14Zm2.72.88L5.64.6,3.48,5.39a7.2,7.2,0,0,0-1.84-.25A1.67,1.67,0,0,0,.2,5.88h0a1.09,1.09,0,0,0-.2.65A1.05,1.05,0,0,0,1.1,7.62a1,1,0,0,0,1-1A.79.79,0,0,1,1.65,6a.64.64,0,0,1,.09-.36l.11-.11,0,0a.85.85,0,0,1,.38-.09h.06a3.87,3.87,0,0,1,.56,0c.21,0,.39.09.53.13C2.83,6.79,2.08,8.37.9,8.37v.07H4.12V8.37A1,1,0,0,1,3,7.27,7.82,7.82,0,0,1,3.6,5.61c.7.17,2.32.38,2.32.38l.3.65c.42.9.52,1.73-.49,1.73v.07H10.3V8.37c-.77,0-1.2-.57-1.81-1.83"/><path class="cls-1" d="M60.78,7V2.76l-3.06.82,0,.07c.9-.21,1,.08,1,.8V7c0,1.14-.09,1.36-.93,1.36v.07h3.84V8.37c-.83,0-.93-.22-.93-1.36"/><path class="cls-1" d="M32.59,2.84c.86,0,.84,1.41.67,2.08h-1.7c0-.75.27-2.08,1-2.08m.94,4.4a2,2,0,0,1-2-2.22h3.6c.34-1.35-.63-2.26-2.4-2.26a3,3,0,0,0-3.21,2.85A2.72,2.72,0,0,0,32.4,8.52a3.18,3.18,0,0,0,3-2.27l-.06,0a2,2,0,0,1-1.8,1"/><path class="cls-1" d="M57.9,7.48a1.38,1.38,0,0,1-.78.33c-.59,0-.6-.75-.6-1.16V2.94h1.17V2.83H56.52V.69h-.11a2.56,2.56,0,0,1-.5,1.59,3,3,0,0,1-2,.55h-.22v.11h.81V7c0,.83.42,1.51,1.15,1.51a3.47,3.47,0,0,0,2.25-1Z"/><path class="cls-1" d="M77.2,9a1,1,0,0,0-1,1,.78.78,0,0,1,.5.71.66.66,0,0,1-.67.7c-.89,0-.89-1.91-.89-3V4.33c0-1.09-.38-1.57-1.24-1.57A3.82,3.82,0,0,0,71.5,3.91l0-1.15-3.08.82,0,.07c.91-.21,1.06.08,1.06.8V7c0,1.14-.09,1.36-.93,1.36v.07h3.5V8.37c-.58,0-.59-.47-.59-1.15V4a1.55,1.55,0,0,1,.94-.42c.62,0,.67.58.67,1V8.37a3.12,3.12,0,0,0,3.06,3.16c.94,0,2.12-.4,2.12-1.42A1,1,0,0,0,77.2,9"/><path class="cls-1" d="M65.13,8.43c-.93,0-.93-1.54-.93-2.79s0-2.8.93-2.8.94,1.58.94,2.8,0,2.79-.94,2.79m0-5.67A2.94,2.94,0,0,0,62,5.64a3.11,3.11,0,0,0,6.21,0,2.94,2.94,0,0,0-3.11-2.88"/><path class="cls-1" d="M42.14,7V4.33c0-1.09-.37-1.57-1.24-1.57a3.82,3.82,0,0,0-2.36,1.15l0-1.15-3.08.82,0,.07c.91-.21,1.06.08,1.06.8V7c0,1.14-.1,1.36-.93,1.36v.07h3.49V8.37c-.58,0-.59-.47-.59-1.15V4a1.57,1.57,0,0,1,.94-.42c.62,0,.68.58.68,1V7.22c0,.86,0,1.15-.58,1.15v.07h3.48V8.37c-.83,0-.93-.22-.93-1.36"/><path class="cls-1" d="M50.9,7a.73.73,0,0,1-.66.79c-.59,0-.67-.66-.67-1.06,0-1.19.57-1.23,1.33-1.72Zm2.47.86c-.49,0-.49-.61-.49-1V4.39c0-1.24-1.26-1.63-2.48-1.63-1,0-2.76.17-2.76,1.47a1,1,0,0,0,1,1,.9.9,0,0,0,1-.9.72.72,0,0,1-.37-.62.89.89,0,0,1,.89-.87c.79,0,.79.72.79,1.39v.64c-1.21.84-3.62.55-3.62,2.24,0,.92.65,1.4,1.65,1.4a2.1,2.1,0,0,0,2-1.18c.09.72.5,1.18,1.11,1.18a2.89,2.89,0,0,0,1.87-.82l0,0a.75.75,0,0,1-.47.17"/><path class="cls-1" d="M46.35,7.81c-.58,0-.59-.75-.59-1.16V2.94h1.17V2.83H45.76V.69h-.11a2.56,2.56,0,0,1-.5,1.59,3,3,0,0,1-2,.55H43v.11h.81V7c0,.83.42,1.51,1.15,1.51a3.47,3.47,0,0,0,2.25-1l0,0a1.32,1.32,0,0,1-.78.33"/><path class="cls-1" d="M60.87,15.8h1.7c.18-.66.19-2.07-.67-2.07s-1,1.33-1,2.07m0,.11a2,2,0,0,0,3.77,1.2l.06,0a3.17,3.17,0,0,1-3,2.26,2.72,2.72,0,0,1-2.85-2.9,3,3,0,0,1,3.21-2.85c1.77,0,2.74.9,2.4,2.26ZM54.7,19.33v-.08c.83,0,.93-.21.93-1.35V12.58c0-.72-.15-1-1.06-.79l0-.08,3.06-.82v7c0,1.14.09,1.35.93,1.35v.08Zm-3-3.47c-.76.49-1.33.53-1.33,1.72,0,.4.08,1.05.68,1.05a.72.72,0,0,0,.65-.79Zm0-.73c0-.67,0-1.39-.79-1.39a.89.89,0,0,0-.89.87.72.72,0,0,0,.37.62.89.89,0,0,1-.95.89.94.94,0,0,1-1-1c0-1.3,1.78-1.47,2.77-1.47,1.21,0,2.48.39,2.48,1.63v2.47c0,.35,0,1,.49,1a.77.77,0,0,0,.47-.17l0,.05a2.88,2.88,0,0,1-1.87.81c-.61,0-1-.46-1.11-1.17a2.09,2.09,0,0,1-2,1.17c-1,0-1.64-.48-1.64-1.4,0-1.68,2.4-1.4,3.61-2.23Zm-7,0a1.81,1.81,0,0,1,1.71-1.45A1.39,1.39,0,0,1,48,15a1.22,1.22,0,0,1-1.17,1.26.9.9,0,0,1-1-.9.77.77,0,0,0,.54-.78c0-.31-.15-.64-.45-.64-.59,0-1,.78-1.18,1.41V17.9c0,1.14,0,1.35,1.14,1.35v.08H41.83v-.08c.84,0,.93-.21.93-1.35V15.33c0-.71-.14-1-1-.79l0-.07,3.07-.82Zm-7,.7h1.71c.17-.66.18-2.07-.67-2.07s-1,1.33-1,2.07m-.25-2.64c1.1-1,2-1.87,2.28-1.87a.29.29,0,0,1,.3.3c0,.39-1.15.78-2.54,1.64Zm.25,2.75a2,2,0,0,0,3.77,1.2l.07,0a3.18,3.18,0,0,1-3,2.26,2.72,2.72,0,0,1-2.86-2.9A3,3,0,0,1,39,13.65c1.76,0,2.73.9,2.39,2.26Zm-5.81,3.42v-.08c.57,0,.58-.28.58-1.14V15.49c0-.43-.06-1-.68-1a1.57,1.57,0,0,0-.94.42v3.21c0,.67,0,1.14.59,1.14v.08H28v-.08c.83,0,.93-.21.93-1.35V15.33c0-.71-.15-1-1.06-.79l0-.07,3.07-.82,0,1.15a3.76,3.76,0,0,1,2.36-1.15c.87,0,1.24.48,1.24,1.57V17.9c0,1.14.1,1.35.93,1.35v.08Zm-8-3.53H25.6c.17-.66.19-2.07-.67-2.07s-1,1.33-1,2.07m-.25-2.64c1.1-1,2-1.87,2.28-1.87a.29.29,0,0,1,.3.3c0,.39-1.15.78-2.54,1.64Zm.25,2.75a2,2,0,0,0,3.77,1.2l.07,0a3.17,3.17,0,0,1-3,2.26,2.72,2.72,0,0,1-2.85-2.9,3,3,0,0,1,3.21-2.85c1.76,0,2.74.9,2.39,2.26ZM18,11.78c1.22,0,2.51.36,2.51,1.41a1.05,1.05,0,0,1-1.1,1.05,1,1,0,0,1-1.05-1,.82.82,0,0,0,.49-.73c0-.32-.21-.66-.92-.66-1.77,0-2,2.16-2,3.72s.25,3.72,2,3.72a2.21,2.21,0,0,0,.69-.1V17.69c0-1.29,0-1.81-1-1.81V15.8h4v.08c-.82,0-.82.52-.82,1.81v1.69l-.82-.21a10.44,10.44,0,0,1-2,.23,4,4,0,0,1-4.29-3.81c0-2.24,1.91-3.81,4.44-3.81"/></g></g></svg>