<svg xmlns="http://www.w3.org/2000/svg" xmlns:xlink="http://www.w3.org/1999/xlink" viewBox="0 0 34.02 34.05"><defs><style>.cls-1{fill:none;}.cls-2{clip-path:url(#clip-path);}.cls-3{fill:#fff;}</style><clipPath id="clip-path" transform="translate(0 0)"><rect class="cls-1" width="34.02" height="34.03"/></clipPath></defs><title>close</title><g id="Calque_2" data-name="Calque 2"><g id="Calque_1-2" data-name="Calque 1"><g class="cls-2"><path class="cls-3" d="M.78,3.85A2.64,2.64,0,0,0,0,5.24,1.3,1.3,0,0,0,.35,6.41L27.64,33.7A1.35,1.35,0,0,0,28.8,34a2.7,2.7,0,0,0,1.4-.76l3-3a2.65,2.65,0,0,0,.77-1.4,1.31,1.31,0,0,0-.29-1.2L6.41.35A1.29,1.29,0,0,0,5.2.06,2.6,2.6,0,0,0,3.81.82Z" transform="translate(0 0)"/><path class="cls-3" d="M30.2.78A2.63,2.63,0,0,0,28.8,0a1.29,1.29,0,0,0-1.16.33L.35,27.64A1.29,1.29,0,0,0,0,28.8a2.63,2.63,0,0,0,.76,1.4l3,3A2.62,2.62,0,0,0,5.2,34a1.32,1.32,0,0,0,1.21-.29L33.7,6.41A1.32,1.32,0,0,0,34,5.2a2.62,2.62,0,0,0-.77-1.39Z" transform="translate(0 0)"/></g></g></g></svg>