<svg xmlns="http://www.w3.org/2000/svg" xmlns:xlink="http://www.w3.org/1999/xlink" viewBox="0 0 49.13 34"><defs><style>.cls-1{fill:none;}.cls-2{clip-path:url(#clip-path);}.cls-3{fill:#324b4b;}.cls-4{fill:#e74532;}</style><clipPath id="clip-path" transform="translate(0 0)"><rect class="cls-1" width="49.12" height="34"/></clipPath></defs><title>hamburger</title><g id="Calque_2" data-name="Calque 2"><g id="Calque_1-2" data-name="Calque 1"><g class="cls-2"><path class="cls-3" d="M0,6.45A3,3,0,0,0,.38,8a1.09,1.09,0,0,0,.9.58h33A1.09,1.09,0,0,0,35.2,8a3,3,0,0,0,.38-1.53V2.17A3,3,0,0,0,35.2.65,1.08,1.08,0,0,0,34.29,0h-33a1.08,1.08,0,0,0-.9.65A3,3,0,0,0,0,2.17Z" transform="translate(0 0)"/><path class="cls-4" d="M0,19.17A2.34,2.34,0,0,0,.52,20.7a1.64,1.64,0,0,0,1.25.58H47.35a1.63,1.63,0,0,0,1.25-.58,2.34,2.34,0,0,0,.52-1.53V14.89a2.34,2.34,0,0,0-.52-1.53,1.57,1.57,0,0,0-1.25-.64H1.77a1.58,1.58,0,0,0-1.25.64A2.34,2.34,0,0,0,0,14.89Z" transform="translate(0 0)"/><path class="cls-3" d="M0,31.89a2.66,2.66,0,0,0,.44,1.52A1.33,1.33,0,0,0,1.5,34H40.1a1.31,1.31,0,0,0,1-.59,2.6,2.6,0,0,0,.45-1.52V27.61a2.61,2.61,0,0,0-.45-1.53,1.27,1.27,0,0,0-1-.64H1.5a1.29,1.29,0,0,0-1.06.64A2.67,2.67,0,0,0,0,27.61Z" transform="translate(0 0)"/></g></g></g></svg>