<svg xmlns="http://www.w3.org/2000/svg" xmlns:xlink="http://www.w3.org/1999/xlink" viewBox="0 0 518.29 328.78"><defs><style>.cls-1{fill:none;}.cls-2{fill:#324b4b;}.cls-3{fill:#e74632;}.cls-4{clip-path:url(#clip-path);}.cls-5{fill:#fff;}</style><clipPath id="clip-path"><rect class="cls-1" x="213.13" y="308.52" width="125.54" height="19.97"/></clipPath></defs><title>SAS #4 part</title><g id="Calque_2" data-name="Calque 2"><g id="Calque_1-2" data-name="Calque 1"><path class="cls-2" d="M18.81,316.39v-4.25l-3.06.82,0,.07c.91-.21,1.06.08,1.06.79v2.57c0,1.14-.1,1.36-.93,1.36v.07h3.84v-.07c-.84,0-.93-.22-.93-1.36"/><path class="cls-2" d="M29.76,316.39v-2.68c0-1.09-.32-1.57-1.18-1.57a3.9,3.9,0,0,0-2.32,1.15c-.09-.79-.42-1.15-1.16-1.15a3.84,3.84,0,0,0-2.32,1.15l0-1.15-3.07.82,0,.07c.91-.21,1.06.08,1.06.79v2.57c0,1.14-.1,1.36-.93,1.36v.07h3.49v-.07c-.58,0-.59-.47-.59-1.15v-3.21a1.64,1.64,0,0,1,.91-.42c.6,0,.6.61.6,1v2.62c0,.86,0,1.15-.58,1.15v.07h3.13v-.07c-.56,0-.57-.29-.57-1.15v-2.89c0-.11,0-.22,0-.31a1.68,1.68,0,0,1,.91-.43c.6,0,.6.61.6,1v2.62c0,.86,0,1.15-.57,1.15v.07h3.48v-.07c-.83,0-.93-.22-.93-1.36"/><path class="cls-2" d="M17.81,311.69A1.17,1.17,0,0,0,19,310.52a1.16,1.16,0,0,0-2.31,0,1.17,1.17,0,0,0,1.15,1.17"/><path class="cls-2" d="M14.82,316.39v-7l-3.05.82,0,.08c.9-.22,1.05.07,1.05.79v5.32c0,1.14-.09,1.36-.93,1.36v.07h3.84v-.07c-.83,0-.93-.22-.93-1.36"/><path class="cls-2" d="M61.25,311.69a1.16,1.16,0,0,0,1.15-1.17,1.14,1.14,0,0,0-1.15-1.14,1.15,1.15,0,0,0-1.15,1.14,1.17,1.17,0,0,0,1.15,1.17"/><path class="cls-2" d="M7.23,315a6.26,6.26,0,0,1-2.09-.23c.42-.95.9-1.9,1-2.14Zm2.73.88L7.11,310l-2.17,4.79a6.72,6.72,0,0,0-1.83-.25,1.71,1.71,0,0,0-1.45.73h0a1.09,1.09,0,0,0-.2.65A1.06,1.06,0,0,0,2.57,317a1,1,0,0,0,1-1,.78.78,0,0,1-.5-.66A.64.64,0,0,1,3.2,315l.11-.12h0a.78.78,0,0,1,.37-.09h.06a3.87,3.87,0,0,1,.56.05l.54.12c-.58,1.24-1.32,2.82-2.51,2.82v.07H5.59v-.07c-.86,0-1.11-.49-1.08-1.1A7.29,7.29,0,0,1,5.07,315c.69.17,2.31.37,2.31.37l.3.65c.42.91.53,1.74-.49,1.74v.07h4.57v-.07c-.76,0-1.19-.57-1.8-1.83"/><path class="cls-2" d="M62.24,316.39v-4.25l-3.05.82,0,.07c.91-.21,1.06.08,1.06.79v2.57c0,1.14-.1,1.36-.93,1.36v.07h3.83v-.07c-.83,0-.93-.22-.93-1.36"/><path class="cls-2" d="M34.06,312.22c.85,0,.84,1.41.67,2.07H33c0-.74.28-2.07,1-2.07m.94,4.4a2,2,0,0,1-2-2.22h3.6c.34-1.36-.63-2.26-2.39-2.26A3,3,0,0,0,31,315a2.72,2.72,0,0,0,2.85,2.91,3.2,3.2,0,0,0,3-2.27l-.07,0a2,2,0,0,1-1.79,1"/><path class="cls-2" d="M59.36,316.86a1.35,1.35,0,0,1-.78.33c-.59,0-.6-.75-.6-1.16v-3.71h1.18v-.11H58v-2.14h-.11a2.56,2.56,0,0,1-.5,1.59,3,3,0,0,1-1.95.55h-.23v.11H56v4.07c0,.83.42,1.5,1.16,1.5a3.48,3.48,0,0,0,2.24-1Z"/><path class="cls-2" d="M78.67,318.41a1,1,0,0,0-1,1,.78.78,0,0,1,.5.71.66.66,0,0,1-.67.7c-.89,0-.89-1.91-.89-3v-4.11c0-1.09-.37-1.57-1.24-1.57A3.76,3.76,0,0,0,73,313.29l0-1.15-3.07.82,0,.07c.91-.21,1.06.08,1.06.79v2.57c0,1.14-.1,1.36-.93,1.36v.07h3.49v-.07c-.58,0-.59-.47-.59-1.15v-3.21a1.57,1.57,0,0,1,.94-.42c.62,0,.68.58.68,1v3.77a3.12,3.12,0,0,0,3,3.16c.94,0,2.13-.4,2.13-1.42a1,1,0,0,0-1.1-1.08"/><path class="cls-2" d="M66.59,317.81c-.93,0-.93-1.54-.93-2.79s0-2.8.93-2.8.94,1.58.94,2.8,0,2.79-.94,2.79m0-5.67A2.88,2.88,0,1,0,69.7,315a2.92,2.92,0,0,0-3.11-2.88"/><path class="cls-2" d="M43.61,316.39v-2.68c0-1.09-.38-1.57-1.24-1.57A3.76,3.76,0,0,0,40,313.29l0-1.15L37,313l0,.07c.91-.21,1.06.08,1.06.79v2.57c0,1.14-.09,1.36-.93,1.36v.07h3.5v-.07c-.58,0-.59-.47-.59-1.15v-3.21A1.55,1.55,0,0,1,41,313c.62,0,.67.58.67,1v2.62c0,.86,0,1.15-.58,1.15v.07h3.49v-.07c-.84,0-.93-.22-.93-1.36"/><path class="cls-2" d="M52.36,316.33a.73.73,0,0,1-.65.8c-.6,0-.67-.66-.67-1.06,0-1.19.56-1.23,1.32-1.72Zm2.48.87c-.49,0-.49-.61-.49-1v-2.47c0-1.24-1.26-1.63-2.48-1.63-1,0-2.77.17-2.77,1.47a1,1,0,0,0,1,1,.89.89,0,0,0,1-.89.71.71,0,0,1-.38-.62.89.89,0,0,1,.89-.87c.79,0,.79.72.79,1.39v.64c-1.21.84-3.61.55-3.61,2.24,0,.91.64,1.4,1.64,1.4a2.09,2.09,0,0,0,2-1.18c.1.72.5,1.18,1.11,1.18a2.89,2.89,0,0,0,1.87-.82l0-.05a.75.75,0,0,1-.47.17"/><path class="cls-2" d="M47.82,317.19c-.59,0-.6-.75-.6-1.16v-3.71H48.4v-.11H47.22v-2.14h-.11a2.51,2.51,0,0,1-.5,1.58,2.91,2.91,0,0,1-2,.56h-.23v.11h.81v4.07c0,.83.42,1.5,1.16,1.5a3.48,3.48,0,0,0,2.24-1l0-.05a1.35,1.35,0,0,1-.78.33"/><path class="cls-2" d="M62.33,325.18H64c.17-.66.18-2.07-.67-2.07s-1,1.32-1,2.07m0,.11a2,2,0,0,0,3.77,1.2l.07,0a3.19,3.19,0,0,1-3,2.26,2.72,2.72,0,0,1-2.85-2.9A3,3,0,0,1,63.54,323c1.76,0,2.73.91,2.39,2.27Zm-6.17,3.42v-.08c.84,0,.93-.21.93-1.35V322c0-.72-.15-1-1.05-.8l0-.07,3.06-.82v7c0,1.14.1,1.35.93,1.35v.08Zm-3-3.47c-.76.49-1.32.53-1.32,1.72,0,.4.07,1.05.67,1.05a.72.72,0,0,0,.65-.79Zm0-.73c0-.67,0-1.39-.79-1.39a.89.89,0,0,0-.89.87.71.71,0,0,0,.38.62.9.9,0,0,1-1,.89,1,1,0,0,1-1-1c0-1.31,1.79-1.48,2.77-1.48,1.22,0,2.48.4,2.48,1.64v2.47c0,.35,0,1,.49,1a.75.75,0,0,0,.47-.17l0,.05a2.88,2.88,0,0,1-1.87.81c-.6,0-1-.46-1.11-1.17a2.08,2.08,0,0,1-2,1.17c-1,0-1.65-.48-1.65-1.4,0-1.68,2.41-1.4,3.61-2.23Zm-7,0A1.8,1.8,0,0,1,47.91,323a1.39,1.39,0,0,1,1.5,1.33,1.22,1.22,0,0,1-1.16,1.26.9.9,0,0,1-1-.9.76.76,0,0,0,.53-.78c0-.31-.15-.64-.45-.64-.59,0-1,.78-1.17,1.41v2.58c0,1.14,0,1.35,1.14,1.35v.08H43.3v-.08c.83,0,.93-.21.93-1.35v-2.57c0-.71-.15-1-1.06-.79l0-.07,3.08-.83Zm-7,.7h1.71c.17-.66.18-2.07-.68-2.07s-1,1.32-1,2.07M39,322.54c1.1-1,2-1.87,2.29-1.87a.29.29,0,0,1,.3.3c0,.39-1.16.78-2.55,1.64Zm.26,2.75a2,2,0,0,0,3.77,1.2l.06,0a3.17,3.17,0,0,1-3,2.26,2.72,2.72,0,0,1-2.85-2.9A3,3,0,0,1,40.41,323c1.77,0,2.74.91,2.4,2.27Zm-5.82,3.42v-.08c.57,0,.58-.28.58-1.14v-2.62c0-.44,0-1-.67-1a1.59,1.59,0,0,0-.94.41v3.22c0,.67,0,1.14.59,1.14v.08h-3.5v-.08c.83,0,.93-.21.93-1.35v-2.57c0-.71-.15-1-1.06-.79l0-.07,3.08-.83,0,1.16A3.77,3.77,0,0,1,34.71,323c.86,0,1.24.48,1.24,1.57v2.69c0,1.14.09,1.35.93,1.35v.08Zm-8-3.53h1.71c.17-.66.18-2.07-.68-2.07s-1,1.32-1,2.07m-.26-2.64c1.1-1,2-1.87,2.29-1.87a.29.29,0,0,1,.3.3c0,.39-1.16.78-2.55,1.64Zm.26,2.75a2,2,0,0,0,3.77,1.2l.06,0a3.17,3.17,0,0,1-3,2.26,2.72,2.72,0,0,1-2.85-2.9A3,3,0,0,1,26.57,323c1.76,0,2.73.91,2.39,2.27Zm-5.86-4.14c1.22,0,2.51.37,2.51,1.41a1,1,0,0,1-1.1,1.06,1,1,0,0,1-1-1,.85.85,0,0,0,.49-.73c0-.32-.22-.66-.92-.66-1.78,0-2,2.16-2,3.72s.24,3.72,2,3.72a2.48,2.48,0,0,0,.68-.1v-1.52c0-1.29,0-1.81-1.05-1.81v-.08h4v.08c-.82,0-.82.52-.82,1.81v1.69l-.83-.21a11.17,11.17,0,0,1-2,.23A4,4,0,0,1,15.07,325c0-2.25,1.9-3.82,4.43-3.82"/><polygon class="cls-2" points="148.94 92.42 148.94 24.64 138.97 24.64 138.97 8.53 175.69 8.53 175.69 24.64 165.73 24.64 165.73 92.42 148.94 92.42"/><polygon class="cls-2" points="227.84 92.42 227.84 8.53 245.13 8.53 252.85 48.67 252.85 8.53 269.06 8.53 269.06 92.42 252.65 92.42 244.25 50.43 244.25 92.42 227.84 92.42"/><polygon class="cls-3" points="1.66 190.09 1.66 106.19 18.46 106.19 18.46 175.83 35.74 175.83 35.74 190.09 1.66 190.09"/><polygon class="cls-3" points="41.99 130.81 45.12 119.48 39.06 119.48 39.06 105.31 56.94 105.31 56.94 119.09 52.05 130.81 41.99 130.81"/><path class="cls-3" d="M79.4,163.13H87L83.3,120.45h-.78Zm-18.56,27L69,106.19H97.37l8,83.9H89.46l-1.18-13.58H78.13l-1,13.58Z"/><rect class="cls-3" x="203.62" y="106.19" width="16.21" height="83.89" transform="translate(-9.7 14.94) rotate(-3.95)"/><polygon class="cls-3" points="319.16 190.09 319.16 106.19 335.96 106.19 335.96 175.83 353.24 175.83 353.24 190.09 319.16 190.09"/><polygon class="cls-3" points="359.29 190.09 359.29 122.31 349.33 122.31 349.33 106.19 386.05 106.19 386.05 122.31 376.09 122.31 376.09 190.09 359.29 190.09"/><polygon class="cls-3" points="483.62 106.19 483.62 190.09 518.29 190.09 518.29 173.78 500.71 173.78 500.71 154.54 516.53 154.54 516.53 138.72 500.71 138.72 500.71 122.41 517.21 122.41 517.21 106.19 483.62 106.19"/><path class="cls-2" d="M183.41,218.12h.78l3.71,42.67h-7.61Zm-13.57-14.26-8.11,83.89H178l1-13.58h10.15l1.18,13.58h15.91l-8-83.89Z"/><polygon class="cls-2" points="211.34 203.86 211.34 287.75 245.43 287.75 245.43 273.49 228.14 273.49 228.14 203.86 211.34 203.86"/><polygon class="cls-2" points="322.58 203.86 322.58 244 314.86 203.86 297.58 203.86 297.58 287.75 313.98 287.75 313.98 245.75 322.38 287.75 338.79 287.75 338.79 203.86 322.58 203.86"/><path class="cls-2" d="M5.08,87.54Q0,81.87,0,69.28V61.07H16.5V71.52q0,6.26,4,6.25a3.46,3.46,0,0,0,3.12-1.32A8.26,8.26,0,0,0,24.51,72a20.22,20.22,0,0,0-1-6.79,15,15,0,0,0-2.49-4.49c-1-1.2-2.82-3.08-5.42-5.61L8.4,47.89Q0,39.69,0,29.72,0,19,4.93,13.36T19.34,7.75q11.33,0,16.31,6t5,18.8H23.54l-.1-5.77a3.66,3.66,0,0,0-.93-2.63,3.41,3.41,0,0,0-2.59-1A3.79,3.79,0,0,0,17,24.25a4.21,4.21,0,0,0-1,2.93q0,4.11,4.69,8.5l9.76,9.38a55.23,55.23,0,0,1,5.67,6.3,24.77,24.77,0,0,1,3.61,7A30.23,30.23,0,0,1,41.12,68q0,12.4-4.54,18.8t-15,6.39q-11.41,0-16.5-5.66"/><path class="cls-2" d="M65.85,76a15.14,15.14,0,0,0,1.61-5.29l6.21-40.55a11.14,11.14,0,0,0,0-4.5,2.9,2.9,0,0,0-2.68-2.14q-4.16-.63-5.11,5.64L59.62,69.6a13.31,13.31,0,0,0,0,5.53,3.24,3.24,0,0,0,2.91,2.33A3,3,0,0,0,65.85,76M45.91,84.24q-4.27-6.93-2.56-18l6-39.48Q51.05,16,57.09,11.36T73.18,8.24q10,1.55,14.42,7.8t2.73,17L84.27,72.49Q82.56,83.68,76.41,89T60.23,92.71q-10-1.54-14.32-8.47"/><path class="cls-2" d="M115.24,39.59q3.53,0,3.52-7.62a31.88,31.88,0,0,0-.29-5,3.76,3.76,0,0,0-1.08-2.3,3.51,3.51,0,0,0-2.25-.63h-3.9V39.59ZM94.15,8.53h25.78q6.15,0,9.52,2.78A13.82,13.82,0,0,1,134,19.13,58.15,58.15,0,0,1,135.16,32q0,7.13-1.85,11.13a10.45,10.45,0,0,1-6.44,5.57,7.76,7.76,0,0,1,5.51,3.81,16.7,16.7,0,0,1,1.71,8.2l-.19,31.74H117.49V59.61c0-2.35-.46-3.84-1.37-4.49s-2.57-1-5-1V92.42h-17Z"/><path class="cls-2" d="M207,67.69a15.37,15.37,0,0,0,.31-5.51l-3.5-40.87a11.6,11.6,0,0,0-1.11-4.37,2.92,2.92,0,0,0-3.11-1.45q-4.19.36-3.65,6.69L199.46,63a13.12,13.12,0,0,0,1.34,5.37,3.24,3.24,0,0,0,3.37,1.58A3,3,0,0,0,207,67.69M189.58,80.41q-5.79-5.73-6.74-16.92l-3.41-39.8q-.93-10.8,3.86-16.75T198.19.13Q208.32-.74,214,4.31t6.65,15.85L224.1,60q1,11.28-3.77,17.86t-14.85,7.45q-10.11.87-15.9-4.86"/><path class="cls-2" d="M279.9,87.54q-5.08-5.67-5.08-18.26V61.07h16.5V71.52q0,6.26,4,6.25a3.46,3.46,0,0,0,3.12-1.32,8.26,8.26,0,0,0,.88-4.44,20.22,20.22,0,0,0-1-6.79,15.26,15.26,0,0,0-2.49-4.49c-1-1.2-2.82-3.08-5.42-5.61l-7.23-7.23q-8.4-8.2-8.4-18.17,0-10.74,4.93-16.36t14.41-5.61q11.32,0,16.31,6t5,18.8H298.36l-.1-5.77a3.66,3.66,0,0,0-.93-2.63,3.41,3.41,0,0,0-2.59-1,3.79,3.79,0,0,0-2.93,1.07,4.21,4.21,0,0,0-1,2.93q0,4.11,4.68,8.5l9.77,9.38a55.23,55.23,0,0,1,5.67,6.3,24.77,24.77,0,0,1,3.61,7A30.23,30.23,0,0,1,315.94,68q0,12.4-4.54,18.8t-15,6.39q-11.43,0-16.5-5.66"/><path class="cls-3" d="M114.21,184.47q-4.44-6.39-4.44-19.39V129q0-11.62,5.17-17.58t15.44-6q8.3,0,12.89,3.32a17.15,17.15,0,0,1,6.35,9.67,62.74,62.74,0,0,1,1.75,16.31H135v-7.52a10.76,10.76,0,0,0-.83-4.69,3.06,3.06,0,0,0-3-1.66c-3.19,0-4.79,2.09-4.79,6.25v40.63a13.3,13.3,0,0,0,1,5.76,4,4,0,0,0,6.83,0,13.15,13.15,0,0,0,1-5.76v-12h-4.49V141.25h20.51v48.84h-6.74l-2.83-7q-4.5,7.81-13.87,7.82-9.09,0-13.53-6.4"/><path class="cls-3" d="M178.91,137.25q3.53,0,3.52-7.62a31.88,31.88,0,0,0-.29-5,3.73,3.73,0,0,0-1.08-2.29,3.44,3.44,0,0,0-2.24-.64h-3.91v15.53Zm-21.09-31.06H183.6q6.15,0,9.52,2.79a13.79,13.79,0,0,1,4.54,7.81,57.48,57.48,0,0,1,1.18,12.84q0,7.14-1.86,11.14a10.43,10.43,0,0,1-6.44,5.56,7.74,7.74,0,0,1,5.51,3.81,16.74,16.74,0,0,1,1.71,8.21l-.19,31.74H181.16V157.27c0-2.34-.45-3.84-1.37-4.49s-2.57-1-5-1v38.29h-17Z"/><path class="cls-3" d="M231.41,185.11q-5.52-5.78-5.52-15.83V130.61q0-12.5,5-18.85t15.62-6.35q9.28,0,14.95,5.08t5.66,14.65v14.45H250.4v-12.4c0-2.41-.29-4.07-.88-5a3.32,3.32,0,0,0-3-1.37,3.17,3.17,0,0,0-3.07,1.57,10,10,0,0,0-.83,4.59v42.09a9.2,9.2,0,0,0,1,4.83,3.26,3.26,0,0,0,2.93,1.52q3.91,0,3.91-6.35V154h16.9v15.82q0,21.1-21.2,21.1-9.18,0-14.69-5.76"/><path class="cls-3" d="M274.31,183.73q-4.56-6.24-3.68-17.72l4.68-61.25L291.52,106l-4.63,60.57a20,20,0,0,0,.3,6.29,3.58,3.58,0,0,0,6.6.56,19.72,19.72,0,0,0,1.26-6.22l4.62-60.57,16.21,1.25-4.67,61.25q-.88,11.49-6.33,17t-15.73,4.66q-10.29-.78-14.84-7"/><path class="cls-3" d="M398.52,190.8q-5.38-5.52-6.13-17l-3.94-61.25,16.24-1.05,3.9,60.57a19.58,19.58,0,0,0,1.18,6.19,3.58,3.58,0,0,0,6.61-.38,19.69,19.69,0,0,0,.38-6.33L412.86,111l16.24-1L433,171.17q.73,11.49-3.89,17.66t-14.94,6.83q-10.31.66-15.69-4.86"/><path class="cls-3" d="M458.13,137.25c2.34,0,3.52-2.54,3.52-7.62a30.44,30.44,0,0,0-.3-5,3.67,3.67,0,0,0-1.07-2.29,3.45,3.45,0,0,0-2.25-.64h-3.9v15.53ZM437,106.19h25.79q6.15,0,9.52,2.79a13.79,13.79,0,0,1,4.54,7.81,58.15,58.15,0,0,1,1.17,12.84q0,7.14-1.85,11.14a10.42,10.42,0,0,1-6.45,5.56,7.76,7.76,0,0,1,5.52,3.81,16.74,16.74,0,0,1,1.71,8.21l-.2,31.74h-16.4V157.27c0-2.34-.46-3.84-1.37-4.49s-2.57-1-5-1v38.29H437Z"/><path class="cls-2" d="M21.49,272.91q4.59,0,4.59-4.5V225.15a15.42,15.42,0,0,0-.44-4.25A2.87,2.87,0,0,0,24,219a10.2,10.2,0,0,0-3.62-.48H18.56v54.4ZM1.66,203.86H24.81q9,0,13.47,5t4.59,14.74l.2,39.27q.09,12.4-4.3,18.65t-14.55,6.25H1.66Z"/><path class="cls-2" d="M56.67,283.64q-5.46-5.46-6.33-16.93l-4.66-61.19,16.26-1.23,4.61,60.5A19.81,19.81,0,0,0,67.8,271a3.6,3.6,0,0,0,6.63-.46,19.51,19.51,0,0,0,.3-6.33l-4.61-60.5,16.26-1.24L91,263.61q.88,11.49-3.69,17.7t-14.9,7q-10.32.78-15.78-4.67"/><path class="cls-2" d="M122.37,282.87q-5.09-5.67-5.08-18.27v-8.2H133.8v10.45q0,6.25,4,6.25a3.49,3.49,0,0,0,3.13-1.32,8.41,8.41,0,0,0,.88-4.44,20.11,20.11,0,0,0-1-6.79,14.7,14.7,0,0,0-2.49-4.49q-1.51-1.81-5.42-5.62l-7.23-7.22q-8.4-8.21-8.4-18.17,0-10.74,4.94-16.36t14.4-5.61q11.33,0,16.31,6t5,18.8H140.83l-.1-5.76a3.67,3.67,0,0,0-.93-2.64,3.38,3.38,0,0,0-2.58-1,3.77,3.77,0,0,0-2.93,1.07,4.15,4.15,0,0,0-1,2.93q0,4.11,4.69,8.5l9.76,9.37a57,57,0,0,1,5.67,6.3,24.65,24.65,0,0,1,3.61,7,30.23,30.23,0,0,1,1.37,9.62q0,12.41-4.54,18.8t-15,6.4q-11.43,0-16.51-5.66"/><path class="cls-2" d="M266.68,271.09a15.2,15.2,0,0,0,2.14-5.09l10.32-39.7a11.32,11.32,0,0,0,.41-4.49,2.9,2.9,0,0,0-2.45-2.4q-4.07-1.07-5.66,5.09l-10.31,39.6a13.25,13.25,0,0,0-.52,5.51,3.23,3.23,0,0,0,2.65,2.61,3,3,0,0,0,3.42-1.13M246,277.27q-3.54-7.33-.71-18.2l10.06-38.66q2.73-10.49,9.22-14.5t16.32-1.46q9.83,2.56,13.55,9.23t1,17.16l-10.06,38.65q-2.85,11-9.5,15.59t-16.48,2.07q-9.84-2.55-13.38-9.88"/><g class="cls-4"><path class="cls-2" d="M270.55,308.52h-.95a0,0,0,0,0-.05.05l.25,2.73s0,0,.05,0h.45s0,0,0,0l.25-2.73s0-.05,0-.05"/><path class="cls-2" d="M263,309.51l-.83.46s0,0,0,.06l1.65,2.25s0,0,.06,0l.39-.21s0,0,0-.06l-1.22-2.48s0,0-.06,0"/><path class="cls-2" d="M277.14,309.51l.82.46s0,0,0,.06l-1.64,2.25a0,0,0,0,1-.07,0l-.38-.21s0,0,0-.06l1.21-2.48s0,0,.07,0"/></g><rect class="cls-2" x="276.79" y="322.06" width="1.73" height="1.65"/><rect class="cls-2" x="261.2" y="322.07" width="1.73" height="1.65"/><path class="cls-2" d="M269.86,319.58h0v7.6h-10v-7.6Zm10-.07v7.67h-4.77v-5.12h-1.73v5.12h-3v-7.6l5-4.37Zm.45,5.86v-6h0l-4.88-4.66H264.78l-5.32,4.88v8h20.81Z"/><g class="cls-4"><path class="cls-2" d="M287.62,325.19v-6.91c0-.43-.13-.87-.6-.87s-.61.45-.61.87v6.91c0,.44.16.86.61.86s.6-.41.6-.86m1.44,1.42a1.16,1.16,0,0,0,.72.42v1.47a2,2,0,0,1-1.86-.91,3.27,3.27,0,0,1-.9.14,2.15,2.15,0,0,1-2.11-1.26,2.91,2.91,0,0,1-.3-1.28v-6.91a2.33,2.33,0,0,1,2.41-2.54,2.18,2.18,0,0,1,2.11,1.28,3.12,3.12,0,0,1,.3,1.26v6.91a3.63,3.63,0,0,1-.37,1.42"/><path class="cls-2" d="M293.68,325.19v-9.32h1.8v9.32a2.57,2.57,0,0,1-1,2.14,2.17,2.17,0,0,1-1.39.4,2.14,2.14,0,0,1-2.1-1.26,3.06,3.06,0,0,1-.31-1.28v-9.32h1.81v9.32c0,.44.15.86.6.86s.61-.41.61-.86"/></g><rect class="cls-2" x="296.81" y="315.87" width="1.81" height="11.74"/><g class="cls-4"><path class="cls-2" d="M305.49,325.24a4.78,4.78,0,0,0,.17-1.25c0-.56,0-1.31,0-2.26s0-1.71,0-2.27a5.06,5.06,0,0,0-.17-1.25c-.18-.56-.53-.62-1.15-.62v8.29c.62,0,1-.07,1.15-.64M304,327.6h-1.42V315.87H304c1.68,0,2.58.32,3.07,1.21s.53,2.36.53,4.66-.06,3.75-.53,4.65-1.39,1.21-3.07,1.21"/></g><rect class="cls-2" x="308.76" y="315.87" width="1.81" height="11.74"/><polygon class="cls-2" points="311.27 315.87 316.49 315.87 316.49 317.64 314.78 317.64 314.78 327.6 312.98 327.6 312.98 317.64 311.27 317.64 311.27 315.87"/><g class="cls-4"><path class="cls-2" d="M322.41,325.19v-6.91c0-.43-.13-.86-.61-.86s-.6.44-.6.86v6.91c0,.44.15.86.6.86s.61-.41.61-.86m.78,2.14a2.17,2.17,0,0,1-1.39.4,2.14,2.14,0,0,1-2.1-1.26,3.06,3.06,0,0,1-.31-1.28v-6.91a2.34,2.34,0,0,1,2.41-2.54,2.16,2.16,0,0,1,2.11,1.28,3,3,0,0,1,.31,1.26v6.91a2.58,2.58,0,0,1-1,2.14"/><path class="cls-2" d="M328.43,325.19v-9.32h1.81v9.32a2.57,2.57,0,0,1-1,2.14,2.21,2.21,0,0,1-1.39.4,2.16,2.16,0,0,1-2.11-1.26,3.21,3.21,0,0,1-.3-1.28v-9.32h1.81v9.32c0,.44.15.86.6.86s.6-.41.6-.86"/></g><rect class="cls-2" x="331.56" y="315.87" width="1.81" height="11.74"/><path class="cls-2" d="M336.8,327.6h1.76v-1.77H336.8Zm-.1-11.73.46,8.57h1l.45-8.57Z"/><polygon class="cls-2" points="213.13 315.87 213.13 327.6 217.33 327.6 217.33 326 214.93 326 214.93 315.87 213.13 315.87"/><g class="cls-4"><path class="cls-2" d="M220.57,319.38h-.1c-.2,1.32-.37,2.67-.57,4h1.24l-.52-3.71Zm-1.15-3.51h2.21l1.86,11.73h-1.76l-.34-2.39h-1.74l-.33,2.39h-1.76Z"/><path class="cls-2" d="M230.05,319.31c0-1.2-.38-1.74-1.34-1.74v3.48c.94,0,1.34-.54,1.34-1.74m-.86,3.34h-.48v5H226.9V315.87h1.81c2.16,0,3.08,1.16,3.08,3.38a3.15,3.15,0,0,1-1,2.67l1.16,5.68h-1.81Z"/><path class="cls-2" d="M235.94,325.19v-9.32h1.81v9.32a2.6,2.6,0,0,1-1,2.14,2.21,2.21,0,0,1-1.39.4,2.15,2.15,0,0,1-2.11-1.26,2.91,2.91,0,0,1-.3-1.28v-9.32h1.8v9.32c0,.44.16.86.61.86s.6-.41.6-.86"/><path class="cls-2" d="M242.08,325.19v-1.61h1.69v1.61a2.57,2.57,0,0,1-1,2.14,2.19,2.19,0,0,1-1.39.4,2.16,2.16,0,0,1-2.11-1.26,3.21,3.21,0,0,1-.3-1.28v-6.91a2.33,2.33,0,0,1,2.41-2.54,2.16,2.16,0,0,1,2.11,1.28,3,3,0,0,1,.3,1.26v1.61h-1.69v-1.61c0-.45-.17-.86-.69-.86s-.59.44-.63.86v6.91c0,.43.18.86.63.86s.69-.38.69-.86"/></g><polygon class="cls-2" points="246.67 322.49 246.67 327.6 244.86 327.6 244.86 315.87 246.67 315.87 246.67 320.72 248.07 320.72 248.07 315.87 249.88 315.87 249.88 327.6 248.07 327.6 248.07 322.49 246.67 322.49"/><polygon class="cls-2" points="255.35 315.87 255.35 317.64 253.03 317.64 253.03 320.72 254.7 320.72 254.7 322.6 253.03 322.6 253.03 325.83 255.35 325.83 255.35 327.6 251.22 327.6 251.22 315.87 255.35 315.87"/><path class="cls-2" d="M123.35,319.5a2.39,2.39,0,0,0-.42-4.75,2.38,2.38,0,0,0-1.65.66h0l-4.08,4.1,4,4a2.4,2.4,0,1,0,2.17-4m-4.59-4.94a7.1,7.1,0,1,0-.08,9.82l-4.87-4.86Zm43.48,12.15h-1.78v-2h1.78c.67,0,1.2.25,1.2,1s-.49.95-1.2.95m-1.71-5h1.72a.8.8,0,0,1,.91.83.83.83,0,0,1-.91.81h-1.72Zm3.66,2.14a1.9,1.9,0,0,0,1.12-1.72c0-1.78-1.61-2.16-3.08-2.14h-4v8.53h4.1c1.83,0,3.32-.62,3.32-2.65a2,2,0,0,0-1.47-2m-24.8,3.58c-.45,0-.84-.2-.84-.7s.38-.68.83-.79a5.62,5.62,0,0,0,1.25-.33c.05,1.27-.27,1.82-1.24,1.82m3.19-3.21c0-1.75-1.41-2.07-2.88-2.07a4.06,4.06,0,0,0-2,.42,1.91,1.91,0,0,0-1,1.66h1.9a.9.9,0,0,1,1-.78c.42,0,1,.18,1,.65s-.19.5-.54.57c-1.4.28-3.6.13-3.6,2.14,0,1.28.93,1.87,2.11,1.87a2.79,2.79,0,0,0,2-.76,2.3,2.3,0,0,0,.12.58h2a3.57,3.57,0,0,1-.24-1.58Zm4.9-2.07a2.33,2.33,0,0,0-1.94,1h0v-.85h-2v6.18h2V325.1c0-.68.34-1.32,1.1-1.32,1.11,0,1,.86,1,1.7v3h2v-4c0-.89-.16-2.39-2.22-2.39m-15,4.59H130.7v-2h1.78c.67,0,1.2.25,1.2,1s-.49.95-1.2.95m-1.78-5h1.72a.8.8,0,0,1,.91.83.82.82,0,0,1-.91.81H130.7Zm3.73,2.14a1.9,1.9,0,0,0,1.12-1.72c0-1.78-1.61-2.16-3.08-2.14h-4v8.53h4.1c1.83,0,3.32-.62,3.32-2.65a2,2,0,0,0-1.47-2m22.46-1.53h-2.28l-1.92,2V320h-2v8.5h2V325.3l2.11,3.17h2.37l-2.55-3.84Zm20.2-.17a2.34,2.34,0,0,0-1.94,1h0v-.85h-2v6.18h2V325.1c0-.68.33-1.32,1.09-1.32,1.11,0,1,.86,1,1.7v3h2v-4c0-.89-.17-2.39-2.23-2.39m9.26.17h-2.27l-1.92,2V320h-2v8.5h2V325.3l2.1,3.17h2.38l-2.55-3.84ZM169,327.4c-.45,0-.85-.2-.85-.7s.38-.68.84-.79a5.77,5.77,0,0,0,1.25-.33c0,1.27-.28,1.82-1.24,1.82m3.19-3.21c0-1.75-1.42-2.07-2.88-2.07a4.1,4.1,0,0,0-2,.42,1.93,1.93,0,0,0-1,1.66h1.89a.91.91,0,0,1,1-.78c.42,0,1,.18,1,.65s-.19.5-.53.57c-1.41.28-3.6.13-3.6,2.14,0,1.28.93,1.87,2.11,1.87a2.77,2.77,0,0,0,2-.76,2.85,2.85,0,0,0,.12.58h2a3.57,3.57,0,0,1-.24-1.58Zm-8.37-13.68h-2v1.65h2Zm0,2.32h-2V319h2Zm-8.19,1.41,3.27,4.77h2.67L158,313.84l3.13-3.33h-2.62l-2.9,3.09v-3.09h-2.22V319h2.22Zm18,3.64a1.28,1.28,0,0,1-.75-.21.84.84,0,0,1-.33-.69h-1.93c.06,1.72,1.56,2.21,3,2.21s3-.55,3-2.2a1.77,1.77,0,0,0-1.58-1.67c-.92-.2-2.28-.31-2.28-.89s.53-.47.87-.47a1.17,1.17,0,0,1,.64.16.57.57,0,0,1,.26.53h1.87c-.07-1.6-1.49-2-2.84-2s-2.83.41-2.83,1.9c0,1.66,1.6,1.7,2.87,2,.36.08,1,.18,1,.66s-.56.65-1,.65m-6.34,0a1.28,1.28,0,0,1-.75-.21.85.85,0,0,1-.34-.69h-1.92c.06,1.72,1.56,2.21,3,2.21s3-.55,3-2.2a1.75,1.75,0,0,0-1.57-1.67c-.93-.2-2.28-.31-2.28-.89s.53-.47.87-.47a1.17,1.17,0,0,1,.64.16.57.57,0,0,1,.26.53h1.87c-.07-1.6-1.49-2-2.84-2s-2.83.41-2.83,1.9c0,1.66,1.6,1.7,2.87,2,.36.08,1,.18,1,.66s-.56.65-1,.65m-28.41-7.37h-2v1.65h2Zm0,2.32h-2V319h2Zm-8.18,1.41L134,319h2.67l-3.55-5.17,3.13-3.33H133.6l-2.9,3.09v-3.09h-2.22V319h2.22Zm18,3.64a1.28,1.28,0,0,1-.75-.21.82.82,0,0,1-.34-.69h-1.92c.06,1.72,1.56,2.21,3,2.21s3-.55,3-2.2a1.75,1.75,0,0,0-1.57-1.67c-.93-.2-2.28-.31-2.28-.89s.53-.47.87-.47a1.17,1.17,0,0,1,.64.16.59.59,0,0,1,.26.53h1.87c-.07-1.6-1.49-2-2.85-2-1.21,0-2.82.41-2.82,1.9,0,1.66,1.6,1.7,2.87,2,.36.08,1,.18,1,.66s-.56.65-.95.65m-6.44,0a1.28,1.28,0,0,1-.75-.21.84.84,0,0,1-.33-.69h-1.93c.06,1.72,1.56,2.21,3,2.21s3-.55,3-2.2a1.77,1.77,0,0,0-1.58-1.67c-.92-.2-2.28-.31-2.28-.89s.53-.47.87-.47a1.17,1.17,0,0,1,.64.16.57.57,0,0,1,.26.53H145c-.07-1.6-1.49-2-2.84-2s-2.82.41-2.82,1.9c0,1.66,1.59,1.7,2.86,2,.36.08,1,.18,1,.66s-.56.65-.95.65"/><path class="cls-2" d="M413.33,290.11c31.78-3.9,55.11-26.85,52.11-51.25s-31.18-41-63-37.13S347.37,228.58,350.36,253s31.19,41,63,37.12"/><path class="cls-5" d="M422.49,228.87l2.77,22.58-5.32.66Zm13.68,36-.87-7.09,2.4-.3-.92-7.45-2.4.29L430.66,220l-14,1.71L412,253.56l.86,7,13.29-1.63L427,266Zm-48.09-17,4.23-.52-.23,3.78-4.22.52ZM386.48,271l.91-13.29,4.27-.52-1,13.29,7.2-.88,1-13.3,3.91-.48-.73-5.89-2.76.34.28-3.79,3.49-.43-.72-5.89-2.35.28.86-12.38-7.2.88-.91,12.39-4.22.52.91-12.39-7.25.89-.86,12.39-4,.48.72,5.9,2.82-.35-.28,3.79-3.54.44.72,5.89,2.4-.3-.91,13.3Z"/></g></g></svg>