<svg xmlns="http://www.w3.org/2000/svg" viewBox="0 0 80.15 18.14"><defs><style>.cls-1{fill:#fff;}</style></defs><title>Kisskissbankbank_white</title><g id="Calque_2" data-name="Calque 2"><g id="Calque_1-2" data-name="Calque 1"><path class="cls-1" d="M16.86,9a2.39,2.39,0,1,0-2.07-4.1h0L10.7,9l4,4a2.39,2.39,0,1,0,2.17-4M12.27,4.05a7.1,7.1,0,1,0-.08,9.82L7.32,9ZM55.75,16.2H54v-2h1.78c.67,0,1.2.25,1.2,1s-.49,1-1.2,1m-1.71-5h1.72a.8.8,0,0,1,.91.83.83.83,0,0,1-.91.81H54Zm3.66,2.14a1.91,1.91,0,0,0,1.12-1.72c0-1.78-1.61-2.16-3.08-2.14h-4V18h4.1c1.83,0,3.32-.62,3.32-2.65a2,2,0,0,0-1.47-2M32.9,16.89c-.45,0-.84-.2-.84-.7s.38-.68.83-.79a5.62,5.62,0,0,0,1.25-.33c0,1.27-.27,1.82-1.24,1.82m3.19-3.22c0-1.75-1.41-2.07-2.88-2.07a4.07,4.07,0,0,0-2,.43,1.89,1.89,0,0,0-1,1.66h1.89a.9.9,0,0,1,1-.78c.42,0,1,.18,1,.65s-.19.5-.54.57c-1.4.28-3.59.13-3.59,2.14a1.85,1.85,0,0,0,2.1,1.87,2.84,2.84,0,0,0,2-.76,2.3,2.3,0,0,0,.12.58h2a3.57,3.57,0,0,1-.24-1.58ZM41,11.6a2.34,2.34,0,0,0-1.94,1h0v-.85h-2V18h2V14.59c0-.68.34-1.32,1.1-1.32,1.11,0,1,.86,1,1.7v3h2V14c0-.9-.16-2.4-2.22-2.4M26,16.2H24.21v-2H26c.67,0,1.2.25,1.2,1s-.49,1-1.2,1m-1.78-5h1.72a.8.8,0,0,1,.91.83.82.82,0,0,1-.91.81H24.21Zm3.73,2.14a1.91,1.91,0,0,0,1.12-1.72c0-1.78-1.61-2.16-3.08-2.14H22V18h4.1c1.83,0,3.32-.62,3.32-2.65a2,2,0,0,0-1.47-2M50.4,11.78H48.12l-1.92,2V9.46h-2V18h2V14.79L48.31,18h2.37l-2.55-3.84Zm20.2-.18a2.35,2.35,0,0,0-1.94,1h0v-.85h-2V18h2V14.59c0-.68.33-1.32,1.09-1.32,1.11,0,1,.86,1,1.7v3h2V14c0-.9-.17-2.4-2.23-2.4m9.26.18H77.59l-1.92,2V9.46h-2V18h2V14.79L77.77,18h2.38L77.6,14.12ZM62.52,16.89c-.45,0-.85-.2-.85-.7s.38-.68.84-.79a5.77,5.77,0,0,0,1.25-.33c0,1.27-.28,1.82-1.24,1.82m3.19-3.22c0-1.75-1.42-2.07-2.88-2.07a4.11,4.11,0,0,0-2,.43,1.93,1.93,0,0,0-1,1.66h1.89a.92.92,0,0,1,1-.78c.41,0,1,.18,1,.65s-.19.5-.53.57c-1.41.28-3.6.13-3.6,2.14a1.85,1.85,0,0,0,2.11,1.87,2.8,2.8,0,0,0,2-.76,2.85,2.85,0,0,0,.12.58h2a3.57,3.57,0,0,1-.24-1.58ZM57.34,0h-2V1.65h2Zm0,2.32h-2V8.5h2ZM49.15,3.73,52.42,8.5h2.67L51.54,3.33,54.67,0H52.05l-2.9,3.09V0H46.93V8.5h2.22Zm18,3.64a1.21,1.21,0,0,1-.75-.22.83.83,0,0,1-.33-.69H64.13c.06,1.73,1.56,2.22,3,2.22s3-.55,3-2.2a1.76,1.76,0,0,0-1.58-1.67c-.92-.2-2.28-.31-2.28-.89,0-.43.53-.47.87-.47a1.17,1.17,0,0,1,.64.16.56.56,0,0,1,.26.53H69.9c-.07-1.6-1.49-2-2.84-2s-2.83.41-2.83,1.9c0,1.66,1.6,1.7,2.87,2,.36.08,1,.18,1,.65s-.56.66-1,.66m-6.34,0a1.21,1.21,0,0,1-.75-.22.83.83,0,0,1-.34-.69H57.79c.06,1.73,1.56,2.22,3,2.22s3-.55,3-2.2A1.75,1.75,0,0,0,62.2,4.81c-.93-.2-2.28-.31-2.28-.89,0-.43.53-.47.87-.47a1.17,1.17,0,0,1,.64.16.56.56,0,0,1,.26.53h1.87c-.07-1.6-1.49-2-2.84-2s-2.83.41-2.83,1.9c0,1.66,1.6,1.7,2.87,2,.36.08,1,.18,1,.65s-.56.66-1,.66M32.39,0h-2V1.65h2Zm0,2.32h-2V8.5h2ZM24.21,3.73,27.48,8.5h2.67L26.6,3.33,29.73,0H27.11l-2.9,3.09V0H22V8.5h2.22Zm18,3.64a1.21,1.21,0,0,1-.75-.22.83.83,0,0,1-.34-.69H39.19c.06,1.73,1.56,2.22,3,2.22s3-.55,3-2.2A1.75,1.75,0,0,0,43.6,4.81c-.93-.2-2.28-.31-2.28-.89,0-.43.53-.47.87-.47a1.17,1.17,0,0,1,.64.16.56.56,0,0,1,.26.53H45c-.07-1.6-1.49-2-2.85-2s-2.82.41-2.82,1.9c0,1.66,1.6,1.7,2.87,2,.36.08,1,.18,1,.65s-.56.66-.95.66m-6.44,0A1.21,1.21,0,0,1,35,7.15a.83.83,0,0,1-.33-.69H32.75c.06,1.73,1.56,2.22,3,2.22s3-.55,3-2.2a1.76,1.76,0,0,0-1.58-1.67c-.92-.2-2.28-.31-2.28-.89,0-.43.53-.47.87-.47a1.17,1.17,0,0,1,.64.16.56.56,0,0,1,.26.53h1.87c-.07-1.6-1.49-2-2.84-2s-2.82.41-2.82,1.9c0,1.66,1.59,1.7,2.86,2,.36.08,1,.18,1,.65s-.56.66-1,.66"/></g></g></svg>