<svg xmlns="http://www.w3.org/2000/svg" xmlns:xlink="http://www.w3.org/1999/xlink" viewBox="0 0 125.54 19.97"><defs><style>.cls-1{fill:none;}.cls-2{clip-path:url(#clip-path);}.cls-3{fill:#fff;}</style><clipPath id="clip-path" transform="translate(0 0)"><rect class="cls-1" width="125.54" height="19.97"/></clipPath></defs><title>LRQDO_white</title><g id="Calque_2" data-name="Calque 2"><g id="Calque_1-2" data-name="Calque 1"><g class="cls-2"><path class="cls-3" d="M57.42,0h-1s0,0,0,.05l.24,2.73s0,0,0,0h.45s0,0,0,0L57.47.05s0,0,0,0" transform="translate(0 0)"/><path class="cls-3" d="M49.88,1l-.82.46s0,0,0,.06l1.64,2.25a0,0,0,0,0,.06,0l.39-.21s0,0,0-.06L50,1s0,0-.07,0" transform="translate(0 0)"/><path class="cls-3" d="M64,1l.82.46s0,0,0,.06L63.2,3.76a0,0,0,0,1-.06,0l-.39-.21s0,0,0-.06L64,1S64,1,64,1" transform="translate(0 0)"/></g><rect class="cls-3" x="63.66" y="13.54" width="1.73" height="1.65"/><rect class="cls-3" x="48.07" y="13.55" width="1.73" height="1.65"/><path class="cls-3" d="M56.73,11.06h0v7.6h-10v-7.6Zm10-.07v7.67H61.93V13.54H60.2v5.12h-3v-7.6l5-4.37Zm.45,5.85v-6h0L62.27,6.18H51.66l-5.32,4.88v8H67.15Z" transform="translate(0 0)"/><g class="cls-2"><path class="cls-3" d="M74.49,16.67V9.76c0-.43-.13-.87-.6-.87s-.6.45-.6.87v6.91c0,.44.15.86.6.86s.6-.41.6-.86m1.44,1.42a1.16,1.16,0,0,0,.72.42V20a2,2,0,0,1-1.86-.91,2.91,2.91,0,0,1-.9.15A2.16,2.16,0,0,1,71.78,18a3.21,3.21,0,0,1-.3-1.28V9.76a2.32,2.32,0,0,1,2.41-2.54A2.17,2.17,0,0,1,76,8.49a3.21,3.21,0,0,1,.3,1.27v6.91a3.68,3.68,0,0,1-.37,1.42" transform="translate(0 0)"/><path class="cls-3" d="M80.55,16.67V7.34h1.81v9.33a2.6,2.6,0,0,1-1,2.14,2.27,2.27,0,0,1-1.39.4A2.16,2.16,0,0,1,77.84,18a3.21,3.21,0,0,1-.3-1.28V7.34h1.81v9.33c0,.44.15.86.6.86s.6-.41.6-.86" transform="translate(0 0)"/></g><rect class="cls-3" x="83.68" y="7.34" width="1.81" height="11.74"/><g class="cls-2"><path class="cls-3" d="M92.37,16.72a4.93,4.93,0,0,0,.16-1.25c0-.56,0-1.31,0-2.27s0-1.7,0-2.26a5.07,5.07,0,0,0-.16-1.25c-.19-.56-.54-.62-1.16-.62v8.28c.62,0,1-.06,1.16-.63m-1.54,2.36H89.4V7.34h1.43c1.67,0,2.57.32,3.06,1.22s.54,2.36.54,4.66-.07,3.75-.54,4.65-1.39,1.21-3.06,1.21" transform="translate(0 0)"/></g><rect class="cls-3" x="95.63" y="7.34" width="1.81" height="11.74"/><polygon class="cls-3" points="98.14 7.34 103.36 7.34 103.36 9.12 101.66 9.12 101.66 19.08 99.85 19.08 99.85 9.12 98.14 9.12 98.14 7.34"/><g class="cls-2"><path class="cls-3" d="M109.28,16.67V9.76c0-.43-.13-.87-.6-.87s-.6.45-.6.87v6.91c0,.44.15.86.6.86s.6-.41.6-.86m.79,2.14a2.27,2.27,0,0,1-1.39.4A2.16,2.16,0,0,1,106.57,18a3.05,3.05,0,0,1-.3-1.28V9.76a2.32,2.32,0,0,1,2.41-2.54,2.19,2.19,0,0,1,2.11,1.27,3.21,3.21,0,0,1,.3,1.27v6.91a2.57,2.57,0,0,1-1,2.14" transform="translate(0 0)"/><path class="cls-3" d="M115.31,16.67V7.34h1.8v9.33a2.57,2.57,0,0,1-1,2.14,2.23,2.23,0,0,1-1.39.4A2.16,2.16,0,0,1,112.59,18a3.21,3.21,0,0,1-.3-1.28V7.34h1.81v9.33c0,.44.15.86.6.86s.61-.41.61-.86" transform="translate(0 0)"/></g><rect class="cls-3" x="118.44" y="7.34" width="1.81" height="11.74"/><path class="cls-3" d="M123.68,19.08h1.76V17.31h-1.76Zm-.1-11.74.45,8.58h1l.46-8.58Z" transform="translate(0 0)"/><polygon class="cls-3" points="0 7.34 0 19.08 4.2 19.08 4.2 17.48 1.81 17.48 1.81 7.34 0 7.34"/><g class="cls-2"><path class="cls-3" d="M7.45,10.86h-.1c-.21,1.32-.38,2.67-.57,4H8l-.52-3.7ZM6.29,7.34H8.5l1.86,11.74H8.6l-.33-2.4H6.53l-.34,2.4H4.44Z" transform="translate(0 0)"/><path class="cls-3" d="M16.92,10.79c0-1.2-.37-1.74-1.34-1.74v3.48c1,0,1.34-.54,1.34-1.74m-.85,3.34h-.49v4.95H13.77V7.34h1.81c2.16,0,3.08,1.17,3.08,3.39a3.19,3.19,0,0,1-1,2.67l1.15,5.68H17Z" transform="translate(0 0)"/><path class="cls-3" d="M22.81,16.67V7.34h1.81v9.33a2.57,2.57,0,0,1-1,2.14,2.27,2.27,0,0,1-1.39.4A2.16,2.16,0,0,1,20.1,18a3.21,3.21,0,0,1-.3-1.28V7.34h1.81v9.33c0,.44.15.86.6.86s.6-.41.6-.86" transform="translate(0 0)"/><path class="cls-3" d="M29,16.67V15.06h1.7v1.61a2.58,2.58,0,0,1-1,2.14,2.22,2.22,0,0,1-1.38.4A2.15,2.15,0,0,1,26.13,18a2.91,2.91,0,0,1-.3-1.28V9.76a2.32,2.32,0,0,1,2.41-2.54,2.17,2.17,0,0,1,2.1,1.27,3,3,0,0,1,.31,1.27v1.61H29V9.76c0-.46-.17-.87-.68-.87s-.59.45-.64.87v6.91c0,.43.19.86.64.86s.68-.38.68-.86" transform="translate(0 0)"/></g><polygon class="cls-3" points="33.54 13.97 33.54 19.08 31.73 19.08 31.73 7.34 33.54 7.34 33.54 12.2 34.95 12.2 34.95 7.34 36.75 7.34 36.75 19.08 34.95 19.08 34.95 13.97 33.54 13.97"/><polygon class="cls-3" points="42.23 7.34 42.23 9.12 39.9 9.12 39.9 12.2 41.57 12.2 41.57 14.08 39.9 14.08 39.9 17.31 42.23 17.31 42.23 19.08 38.09 19.08 38.09 7.34 42.23 7.34"/></g></g></svg>