<svg xmlns="http://www.w3.org/2000/svg" viewBox="0 0 330.91 111.89"><defs><style>.cls-1{fill:#fff;}</style></defs><title>partner-qqf</title><g id="Calque_2" data-name="Calque 2"><g id="Calque_1-2" data-name="Calque 1"><path class="cls-1" d="M24,0C36.53,0,47.71,9.17,47.71,24.05A23.81,23.81,0,0,1,42.06,40l5.52,6.11-5.92,5.07L36,44.92A24.58,24.58,0,0,1,24,48C11.5,48,.33,38.87.33,24.05S11.5,0,24,0Zm0,39.33a15.25,15.25,0,0,0,5.92-1.17l-7.22-7.93,6-5.14,7.22,8.06A16.24,16.24,0,0,0,38.41,24c0-10.4-7.28-15.34-14.43-15.34S9.62,13.59,9.62,24,16.9,39.33,24,39.33Z"/><path class="cls-1" d="M74.17,43.62c-1.75,3-5.46,4.29-8.84,4.29-7.73,0-12.15-5.66-12.15-12.61V15.08h8.64V33.54c0,3.58,1.82,6.44,5.85,6.44,3.84,0,6-2.6,6-6.31V15.08h8.64v26.2a52.12,52.12,0,0,0,.33,5.78H74.43A21.82,21.82,0,0,1,74.17,43.62Z"/><path class="cls-1" d="M92.83.52c3.45,0,5.66,2.86,5.66,6.31,0,8.71-6,11.89-10.08,12.28v-4c2.47-.39,5.2-2.54,5.33-5.53a2.57,2.57,0,0,1-1.36.33,4.45,4.45,0,0,1-4.75-4.68A4.93,4.93,0,0,1,92.83.52Z"/><path class="cls-1" d="M128.13,37.9C126.5,43.42,121.43,48,113.57,48c-8.78,0-16.51-6.31-16.51-17.1,0-10.2,7.54-16.83,15.73-16.83,9.88,0,15.79,6.3,15.79,16.57,0,1.24-.13,2.54-.13,2.67H105.57a7.8,7.8,0,0,0,8.06,7.28c4,0,6.24-2,7.28-4.88Zm-8.06-10.47c-.13-3.18-2.21-6.3-7.15-6.3a6.91,6.91,0,0,0-7.15,6.3Z"/><path class="cls-1" d="M138.92,36.53c.2,2.54,2.08,4.88,5.85,4.88,2.86,0,4.23-1.5,4.23-3.19,0-1.43-1-2.6-3.45-3.12l-4.22-1c-6.18-1.37-9-5.07-9-9.56,0-5.72,5.07-10.46,12-10.46,9.1,0,12.15,5.78,12.54,9.23L149.65,25a4.88,4.88,0,0,0-5.27-4.29c-2.27,0-4.09,1.37-4.09,3.19,0,1.56,1.17,2.53,2.92,2.86l4.55,1c6.31,1.3,9.49,5.14,9.49,9.82,0,5.2-4,10.53-12.41,10.53-9.62,0-12.94-6.24-13.33-9.88Z"/><path class="cls-1" d="M173.7,15.08h6.44v7.67H173.7V36.14c0,2.8,1.3,3.71,3.77,3.71a12.64,12.64,0,0,0,2.67-.26v7.15a12.94,12.94,0,0,1-4.88.78c-6.24,0-10.14-3.71-10.14-9.88V22.75h-5.78V15.08H161c3.38,0,4.94-2.21,4.94-5.07V5.53h7.8Z"/><path class="cls-1" d="M184.43,31.59V23.92h18.85v7.67Z"/><path class="cls-1" d="M215.89,31.07c0,5.79,3.77,9,8.19,9a7.33,7.33,0,0,0,7.35-5.4l7.6,2.54C237.6,42.58,232.6,48,224.08,48a16.55,16.55,0,0,1-16.83-17c0-9.88,7.28-17,16.57-17,8.71,0,13.65,5.39,15,10.79l-7.74,2.6A7,7,0,0,0,224,22.1C219.6,22.1,215.89,25.29,215.89,31.07Z"/><path class="cls-1" d="M272.58,37.9C271,43.42,265.88,48,258,48c-8.78,0-16.51-6.31-16.51-17.1,0-10.2,7.54-16.83,15.73-16.83,9.88,0,15.79,6.3,15.79,16.57,0,1.24-.13,2.54-.13,2.67H250a7.8,7.8,0,0,0,8.06,7.28c4,0,6.24-2,7.28-4.88Zm-8.06-10.47c-.13-3.18-2.21-6.3-7.15-6.3a6.91,6.91,0,0,0-7.15,6.3Z"/><path class="cls-1" d="M24.5,111.89V96.35c-1.49,2.41-4.68,4-8.9,4C6.5,100.32,0,93.1,0,83.48c0-9.36,6-16.7,15.34-16.7,5.59,0,8.45,2.66,9.36,4.48v-3.7H33v44.33ZM16.64,92.58c4.42,0,7.93-3.38,7.93-9.1s-3.51-9-7.93-9-7.93,3.25-7.93,9S12.22,92.58,16.64,92.58Z"/><path class="cls-1" d="M61.43,96.09c-1.76,3-5.46,4.29-8.84,4.29-7.73,0-12.16-5.65-12.16-12.61V67.56h8.65V86c0,3.57,1.82,6.43,5.85,6.43,3.83,0,6-2.6,6-6.3V67.56h8.65V93.75A52.5,52.5,0,0,0,70,99.54H61.69A22,22,0,0,1,61.43,96.09Z"/><path class="cls-1" d="M80.09,53c3.44,0,5.65,2.86,5.65,6.3,0,8.71-6,11.9-10.07,12.29v-4c2.47-.39,5.2-2.53,5.33-5.52a2.72,2.72,0,0,1-1.37.32,4.45,4.45,0,0,1-4.74-4.68A4.93,4.93,0,0,1,80.09,53Z"/><path class="cls-1" d="M117.86,83.55c0,9.81-7.22,17-16.77,17s-16.77-7.15-16.77-17,7.21-17,16.77-17S117.86,73.67,117.86,83.55Zm-8.65,0c0-6-3.9-9.1-8.12-9.1S93,77.5,93,83.55s3.9,9.1,8.13,9.1S109.21,89.59,109.21,83.55Z"/><path class="cls-1" d="M132.16,99.54h-8.64v-32h8.38v4c1.95-3.31,5.79-4.81,9.23-4.81,7.93,0,11.57,5.66,11.57,12.68V99.54h-8.64V80.88c0-3.57-1.76-6.37-5.92-6.37-3.77,0-6,2.93-6,6.63Z"/><path class="cls-1" d="M190.8,64.05v3.51H198V75H190.8V99.54h-8.71V75h-5.33V67.56h5.33V63.92c0-7.22,4.55-11.9,11.63-11.9a12.79,12.79,0,0,1,4.3.65V60a9.85,9.85,0,0,0-2.74-.32C193.33,59.63,190.8,60.47,190.8,64.05Z"/><path class="cls-1" d="M209.65,81.14,217.52,80c1.82-.26,2.4-1.17,2.4-2.27,0-2.28-1.75-4.16-5.39-4.16s-5.85,2.4-6.11,5.2l-7.67-1.63c.52-5,5.13-10.53,13.71-10.53,10.14,0,13.91,5.72,13.91,12.16V94.47a36.64,36.64,0,0,0,.39,5.07h-7.93a22.25,22.25,0,0,1-.32-3.84c-1.63,2.54-4.68,4.75-9.43,4.75-6.82,0-11-4.62-11-9.62C200.1,85.11,204.32,81.92,209.65,81.14Zm10.27,5.46V85.17l-7.21,1.11c-2.21.32-4,1.56-4,4,0,1.88,1.37,3.7,4.16,3.7C216.54,94,219.92,92.26,219.92,86.6Z"/><path class="cls-1" d="M240.21,51.7a5.33,5.33,0,1,1-5.33,5.39A5.32,5.32,0,0,1,240.21,51.7Zm-4.29,47.84v-32h8.64v32Z"/><path class="cls-1" d="M263.28,67.56h6.44v7.67h-6.44V88.62c0,2.79,1.3,3.7,3.77,3.7a12.64,12.64,0,0,0,2.67-.26v7.15a12.73,12.73,0,0,1-4.88.78c-6.24,0-10.14-3.7-10.14-9.88V75.23h-5.78V67.56h1.62c3.38,0,4.94-2.21,4.94-5.07V58h7.8Z"/><path class="cls-1" d="M318.5,72.83a18.12,18.12,0,0,1-2.69,3l-1.2,8.61h7.3l9-31.74H319l-.41,2.94a13,13,0,0,1,2.73,7.88A15.82,15.82,0,0,1,318.5,72.83Z"/><path class="cls-1" d="M295.29,84.56V84.1c0-3.72.85-8.48,6.72-11.8l3.78-2.09a6,6,0,0,0,3.32-5.28c0-2.22-1.5-4.5-5.08-4.5-4.37,0-6.52,3.59-6.52,7.5l-9-.85c0-8.54,6.52-15.38,16.1-15.38,10,0,14.67,6.06,14.67,11.8,0,6.52-3.65,10.62-8.86,13.62l-2.81,1.63c-3,1.7-4.37,3.07-4.76,5.81Z"/><circle class="cls-1" cx="316.63" cy="93.91" r="5.34"/><circle class="cls-1" cx="298.19" cy="93.91" r="5.34"/></g></g></svg>