<?xml version="1.0" encoding="utf-8"?>
<!-- Generator: Adobe Illustrator 24.0.2, SVG Export Plug-In . SVG Version: 6.00 Build 0)  -->
<svg version="1.1" id="Calque_1" xmlns="http://www.w3.org/2000/svg" xmlns:xlink="http://www.w3.org/1999/xlink" x="0px" y="0px"
	 viewBox="0 0 612 612" style="enable-background:new 0 0 612 612;" xml:space="preserve">
<style type="text/css">
	.st0{fill:#FFFFFF;}
	.st1{fill:#E74632;}
</style>
<g id="XMLID_53_">
	<g id="XMLID_992_">
		<g id="XMLID_993_">
			<rect class="st0" width="612" height="612"/>
			<g id="XMLID_1006_">
				<path id="XMLID_1033_" class="st1" d="M103.4,392c0-6.3-4.1-10.6-11-10.6h-25v21.2h25.3C99.3,402.6,103.4,398.3,103.4,392z
					 M106.9,424.6c0-6.3-4.3-11-11.4-11H67.4v22h28.3C102.5,435.6,106.9,431.3,106.9,424.6z M55,370.2h39.1
					c13.6,0,21.8,8.9,21.8,20.1c0,8.6-5,14.7-11.2,16.8c8.2,1.7,14.7,9.1,14.7,18.8c0,12.3-8.6,20.7-22,20.7H55V370.2z"/>
				<path id="XMLID_1030_" class="st1" d="M170.3,383.4l-14.9,36.3h30L170.3,383.4z M196,446.6l-6.5-15.8h-38.4l-6.5,15.8H131
					l32.6-76.4H177l32.6,76.4H196z"/>
				<path id="XMLID_1028_" class="st1" d="M281.1,446.6l-43.8-56.8v56.8H225v-76.4h11.9l43.4,55.9v-55.9h12.3v76.4H281.1z"/>
				<path id="XMLID_1026_" class="st1" d="M411.2,416.2v-46h12.3V416c0,13.6,8.2,20.7,21.2,20.7c13.2,0,21.2-7.1,21.2-20.7v-45.8
					h12.3v46c0,20.9-13.4,31.7-33.5,31.7C424.8,447.9,411.2,436.9,411.2,416.2z"/>
				<path id="XMLID_1024_" class="st1" d="M500.6,446.6v-76.4h55.9v11.2h-43.6v20.9h34.5v11.2h-34.5v22h44v11.2h-56.3L500.6,446.6
					L500.6,446.6z"/>
				<path id="XMLID_1018_" class="st1" d="M88.5,480.3H55V557h12.3v-28.1h19.2c0.6,0,3.5,0,4.1-0.2c13.6-0.9,22.9-11.2,22.9-24.2
					C113.5,491.1,103.6,480.3,88.5,480.3z M87.4,517.7h-20v-26.1h20.1c7.8,0,13.8,5.4,13.8,13.2C101.2,512.3,95.2,517.7,87.4,517.7z
					"/>
				<polygon id="XMLID_1017_" class="st1" points="351.9,491.5 351.9,480.3 292.7,480.3 292.7,491.5 316.3,491.5 316.3,491.8 
					316.3,557 328.3,557 328.3,491.5 				"/>
				<polygon id="XMLID_1016_" class="st1" points="454,480.3 441.9,480.3 441.9,557 489.2,557 489.2,545.7 454,545.7 				"/>
				<path id="XMLID_1015_" class="st1" d="M252.4,511.8c-13.4-2.4-20.1-4.3-19.9-10.6c0.2-5.8,5-10.1,13.4-11c1.9-0.2,3.9-0.2,6,0
					c6.9,0.4,14,3,18.6,6.9c0.4,0.2,1.1,0.6,1.3,1.1l6.7-9.7c-6.3-5.6-17.3-9.5-28.3-9.5c-17.9,0-30,9.7-30.2,23.1
					c-0.4,15.8,14,19,27.4,21.4c15.1,2.8,22,4.3,21.8,11c-0.2,6.3-5.6,11.4-16.6,12.1c-1.5,0-2.8,0-4.3,0
					c-9.9-0.6-17.7-3.9-23.1-9.1c-0.4-0.4-0.9-0.6-1.3-1.1l-6.9,9.9c8,7.6,19,11.7,32.6,11.7c19.6,0,31.5-9.7,31.9-24
					C282.1,517,266.8,514.4,252.4,511.8z"/>
				<path id="XMLID_1012_" class="st1" d="M166.2,478.8c-23.3,0-39.7,17.1-39.7,39.5c0,22.2,16.4,39.5,39.7,39.5
					s39.7-17.1,39.7-39.5C206.2,495.9,189.5,478.8,166.2,478.8z M166.2,546.4c-16.6,0-27.4-12.3-27.4-28.3s10.6-28.3,27.4-28.3
					c16.6,0,27.4,12.3,27.4,28.3S183.1,546.4,166.2,546.4z"/>
				<path id="XMLID_1009_" class="st1" d="M381,480.3L348.4,557H362l6.5-15.8h38.4l6.5,15.8H427l-32.6-76.4H381V480.3z M372.8,530
					l14.9-36.3l14.9,36.3H372.8z"/>
				<polygon id="XMLID_1008_" class="st1" points="514.9,545.7 514.9,523.7 547.5,523.7 547.5,512.5 514.9,512.5 514.9,491.5 
					556.5,491.5 556.5,480.3 502.6,480.3 502.6,557 557,557 557,545.7 				"/>
				<path id="XMLID_18_" class="st1" d="M392.2,408.4c0-22.2-16.4-39.5-39.7-39.5c-23.3,0-39.7,17.1-39.7,39.5
					c0,22.5,16.4,39.5,39.7,39.5c3.5,0,6.7-0.4,9.7-1.1l5.6,13.6h13.6l-8-17.9C385.1,435.6,392.2,423.1,392.2,408.4z M352.5,436.7
					c-16.6,0-27.4-12.3-27.4-28.3s10.6-28.3,27.4-28.3c16.6,0,27.4,12.3,27.4,28.3c0,9.7-4.1,18.1-11,23.3l-3-7.1h-13l5,11.7
					C356,436.5,354.2,436.7,352.5,436.7z"/>
			</g>
			<g id="XMLID_1000_">
				<path id="XMLID_1004_" class="st1" d="M55,336.5v-76.4h12.3v65.4h40.2v11.2H55V336.5z"/>
				<path id="XMLID_1001_" class="st1" d="M161.3,273.3l-14.9,36.3h30L161.3,273.3z M187.2,336.5l-6.5-15.8H142l-6.5,15.8H122
					l32.6-76.4H168l32.8,76.4H187.2z"/>
			</g>
			<g id="XMLID_994_">
				<g id="XMLID_995_">
					<path id="XMLID_996_" class="st1" d="M176.6,57.6c23.3,8.2,61.5,23.1,81.6,41.2L405,97.3c4.1-5.2,5.6-7.3,10.1-13.2
						c10.6-14.2,11.2-28.7-11.4-28.9c-12.1-0.2-203.1,0.6-225.4,0.9C174.9,55.9,172.3,55.9,176.6,57.6z M517.4,103.8l-255.2,4.7
						c1.1,10.4-10.1,25.5-33.2,39.7c-11.9,7.3-38.9,21.8-134.7,58.1c-1.3,0.4-0.6,1.9,0.2,1.7c165.6-42,275.5-73.3,422.9-101.4
						C522,105.8,524.8,103.8,517.4,103.8z M363.5,149.2L134.7,207c-0.4,0.2-0.9,0.9,0.4,0.9l177.2-5.6c10.8-0.4,18.6-9.1,22.7-14.5
						l28.9-37.6C364.6,149.6,364.6,148.7,363.5,149.2z"/>
				</g>
			</g>
		</g>
	</g>
</g>
</svg>
