<?xml version="1.0" encoding="utf-8"?>
<!-- Generator: Adobe Illustrator 24.0.2, SVG Export Plug-In . SVG Version: 6.00 Build 0)  -->
<svg version="1.1" id="Calque_1" xmlns="http://www.w3.org/2000/svg" xmlns:xlink="http://www.w3.org/1999/xlink" x="0px" y="0px"
	 viewBox="0 0 518.3 290.5" style="enable-background:new 0 0 518.3 290.5;" xml:space="preserve">
<style type="text/css">
	.st0{fill:#FFFFFF;}
</style>
<title>SAS #4</title>
<g id="Calque_2_1_">
	<g id="Calque_1-2">
		<g>
			<polygon class="st0" points="421.5,251.9 426.8,251.3 424,228.7 			"/>
			<polygon class="st0" points="389.4,251.5 393.6,251 393.8,247.2 389.6,247.7 			"/>
			<path class="st0" d="M467,238.7c-3-24.4-31.2-41-63-37.1s-55.1,26.9-52.1,51.3s31.2,41,63,37.1h0
				C446.7,286.1,470,263.1,467,238.7z M403.5,249.8l0.7,5.9l-3.9,0.5l-1,13.3l-7.2,0.9l1-13.3l-4.3,0.5l-0.9,13.3l-7.3,0.9l0.9-13.3
				l-2.4,0.3l-0.7-5.9l3.5-0.4l0.3-3.8l-2.8,0.3l-0.7-5.9l4-0.5l0.9-12.4l7.2-0.9l-0.9,12.4l4.2-0.5l0.9-12.4l7.2-0.9l-0.9,12.4
				l2.3-0.3l0.7,5.9l-3.5,0.4l-0.3,3.8L403.5,249.8z M437.7,264.7l-9.2,1.1l-0.9-7.1l-13.3,1.6l-0.9-7l4.7-31.8l14-1.7l3.7,30.3
				l2.4-0.3l0.9,7.4l-2.4,0.3L437.7,264.7z"/>
		</g>
		<polygon class="st0" points="148.9,92.4 148.9,24.6 139,24.6 139,8.5 175.7,8.5 175.7,24.6 165.7,24.6 165.7,92.4 		"/>
		<polygon class="st0" points="227.8,92.4 227.8,8.5 245.1,8.5 252.9,48.7 252.9,8.5 269.1,8.5 269.1,92.4 252.6,92.4 244.2,50.4 
			244.2,92.4 		"/>
		<polygon class="st0" points="1.7,190.1 1.7,106.2 18.5,106.2 18.5,175.8 35.7,175.8 35.7,190.1 		"/>
		<polygon class="st0" points="42,130.8 45.1,119.5 39.1,119.5 39.1,105.3 56.9,105.3 56.9,119.1 52,130.8 		"/>
		<path class="st0" d="M79.4,163.1H87l-3.7-42.7h-0.8L79.4,163.1z M60.8,190.1l8.2-83.9h28.4l8,83.9H89.5l-1.2-13.6H78.1l-1,13.6
			L60.8,190.1z"/>
		
			<rect x="203.6" y="106.2" transform="matrix(0.9976 -6.888591e-02 6.888591e-02 0.9976 -9.7017 14.9369)" class="st0" width="16.2" height="83.9"/>
		<polygon class="st0" points="319.2,190.1 319.2,106.2 336,106.2 336,175.8 353.2,175.8 353.2,190.1 		"/>
		<polygon class="st0" points="359.3,190.1 359.3,122.3 349.3,122.3 349.3,106.2 386,106.2 386,122.3 376.1,122.3 376.1,190.1 		"/>
		<polygon class="st0" points="483.6,106.2 483.6,190.1 518.3,190.1 518.3,173.8 500.7,173.8 500.7,154.5 516.5,154.5 516.5,138.7 
			500.7,138.7 500.7,122.4 517.2,122.4 517.2,106.2 		"/>
		<path class="st0" d="M183.4,218.1h0.8l3.7,42.7h-7.6L183.4,218.1z M169.8,203.9l-8.1,83.9H178l1-13.6h10.1l1.2,13.6h15.9l-8-83.9
			H169.8z"/>
		<polygon class="st0" points="211.3,203.9 211.3,287.8 245.4,287.8 245.4,273.5 228.1,273.5 228.1,203.9 		"/>
		<polygon class="st0" points="322.6,203.9 322.6,244 314.9,203.9 297.6,203.9 297.6,287.8 314,287.8 314,245.8 322.4,287.8 
			338.8,287.8 338.8,203.9 		"/>
		<path class="st0" d="M5.1,87.5C1.7,83.8,0,77.7,0,69.3v-8.2h16.5v10.4c0,4.2,1.3,6.3,4,6.2c1.2,0.1,2.4-0.4,3.1-1.3
			c0.7-1.4,1-2.9,0.9-4.4c0.1-2.3-0.3-4.6-1-6.8c-0.6-1.6-1.4-3.1-2.5-4.5c-1-1.2-2.8-3.1-5.4-5.6l-7.2-7.2C2.8,42.4,0,36.4,0,29.7
			c0-7.1,1.6-12.6,4.9-16.4S13,7.7,19.3,7.8c7.6,0,13,2,16.3,6c3.3,4,5,10.3,5,18.8H23.5l-0.1-5.8c0-1-0.3-1.9-0.9-2.6
			c-0.7-0.7-1.6-1-2.6-1c-1.1-0.1-2.1,0.3-2.9,1.1c-0.7,0.8-1.1,1.9-1,2.9c0,2.7,1.6,5.6,4.7,8.5l9.8,9.4c2,2,3.9,4.1,5.7,6.3
			c1.6,2.1,2.8,4.5,3.6,7c1,3.1,1.5,6.4,1.4,9.6c0,8.3-1.5,14.5-4.5,18.8c-3,4.3-8,6.4-15,6.4C14,93.2,8.5,91.3,5.1,87.5"/>
		<path class="st0" d="M65.8,76c0.9-1.6,1.4-3.4,1.6-5.3l6.2-40.5c0.3-1.5,0.3-3,0-4.5c-0.3-1.2-1.4-2.1-2.7-2.1
			c-2.8-0.4-4.5,1.5-5.1,5.6l-6.3,40.4c-0.4,1.8-0.4,3.7,0,5.5c0.4,1.3,1.5,2.2,2.9,2.3C63.8,77.8,65.2,77.2,65.8,76 M45.9,84.2
			c-2.8-4.6-3.7-10.6-2.6-18l6-39.5c1.1-7.2,3.7-12.3,7.7-15.4s9.4-4.1,16.1-3.1c6.7,1,11.5,3.6,14.4,7.8c2.9,4.2,3.9,9.8,2.7,17
			l-6.1,39.4c-1.1,7.5-3.8,13-7.9,16.5s-9.5,4.8-16.2,3.7C53.6,91.7,48.8,88.9,45.9,84.2"/>
		<path class="st0" d="M115.2,39.6c2.4,0,3.5-2.5,3.5-7.6c0-1.7-0.1-3.3-0.3-5c-0.1-0.9-0.5-1.7-1.1-2.3c-0.7-0.5-1.5-0.7-2.2-0.6
			h-3.9v15.5H115.2z M94.2,8.5h25.8c4.1,0,7.3,0.9,9.5,2.8c2.4,2,4,4.8,4.6,7.8c0.9,4.2,1.3,8.6,1.2,12.9c0,4.8-0.6,8.5-1.9,11.1
			c-1.3,2.7-3.6,4.7-6.4,5.6c2.3,0.4,4.3,1.8,5.5,3.8c1.3,2.5,1.8,5.4,1.7,8.2l-0.2,31.7h-16.4V59.6c0-2.3-0.5-3.8-1.4-4.5
			s-2.6-1-5-1v38.3h-17L94.2,8.5z"/>
		<path class="st0" d="M207,67.7c0.4-1.8,0.5-3.7,0.3-5.5l-3.5-40.9c-0.1-1.5-0.5-3-1.1-4.4c-0.6-1.1-1.9-1.7-3.1-1.4
			c-2.8,0.2-4,2.5-3.6,6.7l3.5,40.8c0.1,1.9,0.5,3.7,1.3,5.4c0.7,1.2,2,1.8,3.4,1.6C205.5,69.9,206.7,69,207,67.7 M189.6,80.4
			c-3.9-3.8-6.1-9.5-6.7-16.9l-3.4-39.8c-0.6-7.2,0.7-12.8,3.9-16.8s8.2-6.2,14.9-6.8c6.8-0.6,12,0.8,15.8,4.2s6,8.6,6.6,15.9
			l3.5,39.8c0.7,7.5-0.6,13.5-3.8,17.9c-3.2,4.4-8.1,6.9-14.9,7.4C198.7,85.9,193.4,84.3,189.6,80.4"/>
		<path class="st0" d="M279.9,87.5c-3.4-3.8-5.1-9.9-5.1-18.3v-8.2h16.5v10.4c0,4.2,1.3,6.3,4,6.2c1.2,0.1,2.4-0.4,3.1-1.3
			c0.7-1.4,1-2.9,0.9-4.4c0.1-2.3-0.3-4.6-1-6.8c-0.6-1.6-1.4-3.1-2.5-4.5c-1-1.2-2.8-3.1-5.4-5.6l-7.2-7.2
			c-5.6-5.5-8.4-11.5-8.4-18.2c0-7.2,1.6-12.6,4.9-16.4c3.3-3.7,8.1-5.6,14.4-5.6c7.5,0,13,2,16.3,6s5,10.3,5,18.8h-17.1l-0.1-5.8
			c0-1-0.3-1.9-0.9-2.6c-0.7-0.7-1.6-1-2.6-1c-1.1-0.1-2.2,0.3-2.9,1.1c-0.7,0.8-1.1,1.9-1,2.9c0,2.7,1.6,5.6,4.7,8.5l9.8,9.4
			c2,2,3.9,4.1,5.7,6.3c1.6,2.1,2.8,4.5,3.6,7c1,3.1,1.5,6.4,1.4,9.7c0,8.3-1.5,14.5-4.5,18.8s-8,6.4-15,6.4
			C288.8,93.2,283.3,91.3,279.9,87.5"/>
		<path class="st0" d="M114.2,184.5c-3-4.3-4.4-10.7-4.4-19.4V129c0-7.7,1.7-13.6,5.2-17.6c3.4-4,8.6-6,15.4-6
			c5.5,0,9.8,1.1,12.9,3.3c3.2,2.4,5.4,5.8,6.4,9.7c1.3,5.3,1.9,10.8,1.8,16.3H135v-7.5c0.1-1.6-0.2-3.2-0.8-4.7
			c-0.6-1.1-1.8-1.8-3-1.7c-3.2,0-4.8,2.1-4.8,6.2v40.6c-0.1,2,0.2,3.9,1,5.8c1.2,1.9,3.6,2.5,5.5,1.3c0.5-0.3,1-0.8,1.3-1.3
			c0.8-1.8,1.1-3.8,1-5.8v-12h-4.5v-14.5h20.5v48.8h-6.7l-2.8-7c-3,5.2-7.6,7.8-13.9,7.8C121.7,190.9,117.2,188.8,114.2,184.5"/>
		<path class="st0" d="M178.9,137.2c2.4,0,3.5-2.5,3.5-7.6c0-1.7-0.1-3.3-0.3-5c-0.1-0.9-0.5-1.7-1.1-2.3c-0.6-0.5-1.4-0.7-2.2-0.6
			h-3.9v15.5L178.9,137.2z M157.8,106.2h25.8c4.1,0,7.3,0.9,9.5,2.8c2.3,2,3.9,4.8,4.5,7.8c0.9,4.2,1.3,8.5,1.2,12.8
			c0,4.8-0.6,8.5-1.9,11.1c-1.3,2.7-3.6,4.7-6.4,5.6c2.3,0.4,4.3,1.8,5.5,3.8c1.3,2.5,1.8,5.4,1.7,8.2l-0.2,31.7h-16.4v-32.8
			c0-2.3-0.4-3.8-1.4-4.5s-2.6-1-5-1v38.3h-17L157.8,106.2z"/>
		<path class="st0" d="M231.4,185.1c-3.7-3.9-5.5-9.1-5.5-15.8v-38.7c0-8.3,1.7-14.6,5-18.8c3.3-4.2,8.5-6.3,15.6-6.3
			c6.2,0,11.2,1.7,14.9,5.1c3.8,3.4,5.7,8.3,5.7,14.7v14.5h-16.7v-12.4c0-2.4-0.3-4.1-0.9-5c-0.7-1-1.8-1.5-3-1.4
			c-1.2-0.1-2.4,0.5-3.1,1.6c-0.6,1.4-0.9,3-0.8,4.6v42.1c-0.1,1.7,0.2,3.3,1,4.8c0.6,1,1.8,1.6,2.9,1.5c2.6,0,3.9-2.1,3.9-6.4V154
			h16.9v15.8c0,14.1-7.1,21.1-21.2,21.1C240,190.9,235.1,189,231.4,185.1"/>
		<path class="st0" d="M274.3,183.7c-3-4.2-4.3-10.1-3.7-17.7l4.7-61.2l16.2,1.2l-4.6,60.6c-0.2,2.1-0.1,4.2,0.3,6.3
			c0.6,1.9,2.6,2.9,4.5,2.3c0.9-0.3,1.7-0.9,2.1-1.8c0.8-2,1.2-4.1,1.3-6.2l4.6-60.6l16.2,1.2l-4.7,61.3c-0.6,7.7-2.7,13.3-6.3,17
			c-3.6,3.7-8.9,5.2-15.7,4.7C282.3,190.3,277.3,187.9,274.3,183.7"/>
		<path class="st0" d="M398.5,190.8c-3.6-3.7-5.6-9.3-6.1-17l-3.9-61.2l16.2-1.1l3.9,60.6c0.1,2.1,0.5,4.2,1.2,6.2
			c0.9,1.8,3,2.5,4.8,1.7c0.9-0.4,1.5-1.2,1.8-2.1c0.5-2.1,0.6-4.2,0.4-6.3l-3.9-60.6l16.2-1l3.9,61.2c0.5,7.7-0.8,13.5-3.9,17.7
			c-3.1,4.1-8.1,6.4-14.9,6.8C407.3,196.1,402.1,194.5,398.5,190.8"/>
		<path class="st0" d="M458.1,137.2c2.3,0,3.5-2.5,3.5-7.6c0-1.7-0.1-3.3-0.3-5c-0.1-0.9-0.5-1.7-1.1-2.3c-0.7-0.5-1.4-0.7-2.2-0.6
			h-3.9v15.5L458.1,137.2z M437,106.2h25.8c4.1,0,7.3,0.9,9.5,2.8c2.3,2,3.9,4.8,4.5,7.8c0.9,4.2,1.3,8.5,1.2,12.8
			c0,4.8-0.6,8.5-1.9,11.1c-1.3,2.7-3.6,4.7-6.5,5.6c2.3,0.4,4.4,1.8,5.5,3.8c1.3,2.5,1.8,5.4,1.7,8.2l-0.2,31.7h-16.4v-32.8
			c0-2.3-0.5-3.8-1.4-4.5s-2.6-1-5-1v38.3h-17V106.2z"/>
		<path class="st0" d="M21.5,272.9c3.1,0,4.6-1.5,4.6-4.5v-43.3c0.1-1.4-0.1-2.9-0.4-4.2c-0.2-0.9-0.8-1.6-1.6-1.9
			c-1.2-0.4-2.4-0.5-3.6-0.5h-1.8v54.4L21.5,272.9z M1.7,203.9h23.1c6,0,10.5,1.7,13.5,5c3,3.3,4.5,8.2,4.6,14.7l0.2,39.3
			c0.1,8.3-1.4,14.5-4.3,18.6c-2.9,4.2-7.8,6.2-14.5,6.2H1.7V203.9z"/>
		<path class="st0" d="M56.7,283.6c-3.6-3.6-5.8-9.3-6.3-16.9l-4.7-61.2l16.3-1.2l4.6,60.5c0.1,2.1,0.5,4.2,1.3,6.2
			c0.9,1.8,3.1,2.5,4.8,1.6c0.8-0.4,1.5-1.2,1.8-2.1c0.4-2.1,0.5-4.2,0.3-6.3l-4.6-60.5l16.3-1.2l4.6,61.1
			c0.6,7.7-0.6,13.6-3.7,17.7s-8,6.5-14.9,7C65.5,288.8,60.3,287.3,56.7,283.6"/>
		<path class="st0" d="M122.4,282.9c-3.4-3.8-5.1-9.9-5.1-18.3v-8.2h16.5v10.5c0,4.2,1.3,6.2,4,6.2c1.2,0.1,2.4-0.4,3.1-1.3
			c0.7-1.4,1-2.9,0.9-4.4c0.1-2.3-0.3-4.6-1-6.8c-0.6-1.6-1.4-3.2-2.5-4.5c-1-1.2-2.8-3.1-5.4-5.6l-7.2-7.2
			c-5.6-5.5-8.4-11.5-8.4-18.2c0-7.2,1.6-12.6,4.9-16.4c3.3-3.7,8.1-5.6,14.4-5.6c7.6,0,13,2,16.3,6c3.3,4,5,10.3,5,18.8h-17.1
			l-0.1-5.8c0.1-1-0.3-1.9-0.9-2.6c-0.7-0.7-1.6-1.1-2.6-1c-1.1-0.1-2.2,0.3-2.9,1.1c-0.7,0.8-1.1,1.9-1,2.9c0,2.7,1.6,5.6,4.7,8.5
			l9.8,9.4c2,2,3.9,4.1,5.7,6.3c1.6,2.1,2.8,4.5,3.6,7c1,3.1,1.4,6.4,1.4,9.6c0,8.3-1.5,14.5-4.5,18.8s-8,6.4-15,6.4
			C131.2,288.5,125.7,286.6,122.4,282.9"/>
		<path class="st0" d="M266.7,271.1c1-1.6,1.7-3.3,2.1-5.1l10.3-39.7c0.4-1.5,0.6-3,0.4-4.5c-0.2-1.2-1.2-2.2-2.5-2.4
			c-2.7-0.7-4.6,1-5.7,5.1l-10.3,39.6c-0.6,1.8-0.7,3.7-0.5,5.5c0.2,1.3,1.3,2.4,2.6,2.6C264.5,272.6,265.9,272.2,266.7,271.1
			 M246,277.3c-2.4-4.9-2.6-11-0.7-18.2l10.1-38.7c1.8-7,4.9-11.8,9.2-14.5s9.8-3.2,16.3-1.5c6.6,1.7,11.1,4.8,13.5,9.2
			c2.5,4.4,2.8,10.2,1,17.2l-10.1,38.6c-1.9,7.3-5.1,12.5-9.5,15.6c-4.4,3.1-9.9,3.8-16.5,2.1C252.8,285.4,248.4,282.2,246,277.3"/>
	</g>
</g>
</svg>
