<svg xmlns="http://www.w3.org/2000/svg" viewBox="0 0 518.29 329.85"><defs><style>.cls-1{fill:#e64632;}.cls-2{fill:#324b4b;}.cls-3{fill:#fff;}.cls-4{fill:#e74632;}</style></defs><title>SAS#4citoyens</title><g id="Calque_2" data-name="Calque 2"><g id="Calque_1-2" data-name="Calque 1"><path class="cls-1" d="M1.47,329.61V303.84H6.63v21.39h5.31v4.38Z"/><path class="cls-1" d="M13.68,329.61V303.84H24v5H18.93v5h4.86v4.86H18.93v5.91h5.4v5Z"/><path class="cls-1" d="M27.39,328.11q-1.56-1.74-1.56-5.61V320H30.9v3.21q0,1.92,1.23,1.92a1.07,1.07,0,0,0,1-.4,2.59,2.59,0,0,0,.27-1.37,6.14,6.14,0,0,0-.3-2.08,4.55,4.55,0,0,0-.77-1.38c-.31-.37-.86-.95-1.66-1.73l-2.22-2.22a7.66,7.66,0,0,1-2.58-5.58,7.38,7.38,0,0,1,1.51-5,5.59,5.59,0,0,1,4.43-1.73q3.48,0,5,1.85t1.53,5.77H33.06l0-1.77a1.13,1.13,0,0,0-.29-.81,1,1,0,0,0-.79-.3,1.16,1.16,0,0,0-.9.33,1.29,1.29,0,0,0-.3.9,3.75,3.75,0,0,0,1.44,2.61l3,2.88A17.12,17.12,0,0,1,36.93,317,7.58,7.58,0,0,1,38,319.16a9.24,9.24,0,0,1,.42,2.95,10,10,0,0,1-1.4,5.78q-1.39,2-4.6,2Q29,329.85,27.39,328.11Z"/><path class="cls-1" d="M48.94,328.08a6.73,6.73,0,0,1-1.69-4.86V311.34a9.26,9.26,0,0,1,1.53-5.79,5.73,5.73,0,0,1,4.8-1.95,6.62,6.62,0,0,1,4.59,1.56,5.73,5.73,0,0,1,1.74,4.5v4.44H54.78v-3.81a3.05,3.05,0,0,0-.27-1.53,1,1,0,0,0-.93-.42,1,1,0,0,0-.95.48,3.09,3.09,0,0,0-.25,1.41v12.93a2.84,2.84,0,0,0,.3,1.49,1,1,0,0,0,.9.46q1.2,0,1.2-1.95v-4.65H60v4.86q0,6.48-6.51,6.48A6,6,0,0,1,48.94,328.08Z"/><path class="cls-1" d="M61.71,329.61V303.84h5v25.77Z"/><path class="cls-1" d="M71.28,329.61V308.79H68.22v-5H79.5v5H76.44v20.82Z"/><path class="cls-1" d="M82.62,328A8,8,0,0,1,81,322.59V310.32a7,7,0,0,1,1.62-5,7.46,7.46,0,0,1,9.48,0,7,7,0,0,1,1.62,5v12.27A8,8,0,0,1,92.1,328a6.88,6.88,0,0,1-9.48,0Zm5.67-3.44a4.67,4.67,0,0,0,.24-1.68v-12.6a3.47,3.47,0,0,0-.23-1.36.89.89,0,0,0-.91-.53q-1.29,0-1.29,2v12.57a4.07,4.07,0,0,0,.27,1.68,1,1,0,0,0,1,.57A.91.91,0,0,0,88.29,324.51Z"/><path class="cls-1" d="M99.18,329.61v-8.49l-4.11-17.28h5.1l1.44,8.73,1.44-8.73h5.1L104,321.12v8.49Z"/><path class="cls-1" d="M109.71,329.61V303.84H120v5H115v5h4.86v4.86H115v5.91h5.4v5Z"/><path class="cls-1" d="M122.37,329.61V303.84h5.31l2.37,12.33V303.84h5v25.77h-5l-2.58-12.9v12.9Z"/><path class="cls-1" d="M138.66,328.11q-1.56-1.74-1.56-5.61V320h5.07v3.21q0,1.92,1.23,1.92a1.07,1.07,0,0,0,1-.4,2.59,2.59,0,0,0,.27-1.37,6.14,6.14,0,0,0-.3-2.08,4.55,4.55,0,0,0-.77-1.38c-.31-.37-.86-.95-1.66-1.73l-2.22-2.22a7.66,7.66,0,0,1-2.58-5.58,7.38,7.38,0,0,1,1.51-5A5.59,5.59,0,0,1,143,303.6q3.48,0,5,1.85t1.53,5.77h-5.25l0-1.77a1.13,1.13,0,0,0-.29-.81,1,1,0,0,0-.79-.3,1.16,1.16,0,0,0-.9.33,1.29,1.29,0,0,0-.3.9,3.75,3.75,0,0,0,1.44,2.61l3,2.88A17.12,17.12,0,0,1,148.2,317a7.58,7.58,0,0,1,1.11,2.16,9.24,9.24,0,0,1,.42,2.95,10,10,0,0,1-1.4,5.78q-1.4,2-4.6,2Q140.22,329.85,138.66,328.11Z"/><path class="cls-1" d="M158.76,303.84h6.81a4.89,4.89,0,0,1,4.41,2,10.59,10.59,0,0,1,1.32,5.83,11.45,11.45,0,0,1-1.17,5.79q-1.17,1.95-4.2,2h-2.1v10.2h-5.07Zm5.37,10.92a2.18,2.18,0,0,0,1.36-.34,1.64,1.64,0,0,0,.57-1,9.57,9.57,0,0,0,.14-1.85,5.58,5.58,0,0,0-.36-2.34,1.45,1.45,0,0,0-1.44-.72h-.57v6.24Z"/><path class="cls-1" d="M172.53,329.61,175,303.84h8.73l2.46,25.77h-4.89l-.36-4.17h-3.12l-.3,4.17Zm5.7-8.28h2.34l-1.14-13.11h-.24Z"/><path class="cls-1" d="M189.12,328.11q-1.56-1.74-1.56-5.61V320h5.07v3.21q0,1.92,1.23,1.92a1.07,1.07,0,0,0,1-.4,2.59,2.59,0,0,0,.27-1.37,6.14,6.14,0,0,0-.3-2.08,4.55,4.55,0,0,0-.77-1.38c-.31-.37-.86-.95-1.66-1.73l-2.22-2.22a7.66,7.66,0,0,1-2.58-5.58,7.38,7.38,0,0,1,1.51-5,5.59,5.59,0,0,1,4.43-1.73q3.48,0,5,1.85t1.53,5.77h-5.25l0-1.77a1.13,1.13,0,0,0-.29-.81,1,1,0,0,0-.79-.3,1.16,1.16,0,0,0-.9.33,1.29,1.29,0,0,0-.3.9,3.75,3.75,0,0,0,1.44,2.61l3,2.88a17.12,17.12,0,0,1,1.74,1.94,7.58,7.58,0,0,1,1.11,2.16,9.24,9.24,0,0,1,.42,2.95,10,10,0,0,1-1.4,5.78q-1.39,2-4.6,2Q190.68,329.85,189.12,328.11Z"/><path class="cls-1" d="M203.25,328.11q-1.56-1.74-1.56-5.61V320h5.07v3.21q0,1.92,1.23,1.92a1.07,1.07,0,0,0,1-.4,2.59,2.59,0,0,0,.27-1.37,6.14,6.14,0,0,0-.3-2.08,4.55,4.55,0,0,0-.77-1.38c-.31-.37-.86-.95-1.66-1.73l-2.22-2.22a7.66,7.66,0,0,1-2.58-5.58,7.38,7.38,0,0,1,1.51-5,5.59,5.59,0,0,1,4.43-1.73q3.48,0,5,1.85t1.53,5.77h-5.25l0-1.77a1.13,1.13,0,0,0-.29-.81,1,1,0,0,0-.79-.3,1.16,1.16,0,0,0-.9.33,1.29,1.29,0,0,0-.3.9,3.75,3.75,0,0,0,1.44,2.61l3,2.88a17.12,17.12,0,0,1,1.74,1.94,7.58,7.58,0,0,1,1.11,2.16,9.24,9.24,0,0,1,.42,2.95,10,10,0,0,1-1.4,5.78q-1.39,2-4.6,2Q204.81,329.85,203.25,328.11Z"/><path class="cls-1" d="M216.33,329.61V303.84h10.32v5h-5.07v5h4.86v4.86h-4.86v5.91H227v5Z"/><path class="cls-1" d="M229,329.61V303.84h5.31l2.37,12.33V303.84h5v25.77h-5L234,316.71v12.9Z"/><path class="cls-1" d="M246.44,329.61V308.79h-3.06v-5h11.29v5h-3.06v20.82Z"/><path class="cls-1" d="M262.71,329.61l2.48-25.77h8.73l2.46,25.77H271.5l-.37-4.17H268l-.3,4.17ZM273,303.06l-7-1.38v-5.1l7,3.21Zm-4.6,18.27h2.35l-1.14-13.11h-.25Z"/><path class="cls-1" d="M287.45,329.61V308.79h-3.06v-5h11.28v5h-3.06v20.82Z"/><path class="cls-1" d="M296.72,329.61l2.49-25.77h8.73l2.46,25.77h-4.89l-.36-4.17H302l-.3,4.17Zm5.7-8.28h2.34l-1.14-13.11h-.24Z"/><path class="cls-1" d="M312.26,303.84h7a5.35,5.35,0,0,1,4.1,1.38c.85.92,1.27,2.42,1.27,4.5v1.14q0,3.69-2.64,4.41a3.25,3.25,0,0,1,2.28,2,10.37,10.37,0,0,1,.66,4,12.63,12.63,0,0,1-1.23,6.23q-1.23,2.12-4.44,2.11h-7Zm6.09,9.69a.9.9,0,0,0,.9-.49,3.29,3.29,0,0,0,.24-1.4v-2.58q0-1.26-1.11-1.26H317.3v5.73Zm1.47,9.63V320a3.63,3.63,0,0,0-.34-1.77,1.29,1.29,0,0,0-1.22-.6h-1v7.47l.51,0Q319.82,325.08,319.82,323.16Z"/><path class="cls-1" d="M326.93,329.61V303.84h5.16v21.39h5.31v4.38Z"/><path class="cls-1" d="M339.14,329.61V303.84h10.32v5h-5.07v5h4.86v4.86h-4.86v5.91h5.4v5Z"/><path class="cls-1" d="M359.21,322.59l-1-18.75h5.25l-1.05,18.75Zm-1,7v-4.38h5.25v4.38Z"/><path class="cls-2" d="M414.87,290c31.78-3.9,55.11-26.85,52.11-51.25s-31.19-41-63-37.13-55.11,26.85-52.12,51.26,31.19,41,63,37.12"/><path class="cls-3" d="M424,228.72l2.78,22.58-5.32.65Zm13.69,36-.87-7.09,2.4-.3-.92-7.45-2.4.29-3.72-30.3-14,1.72-4.67,31.8.86,7,13.29-1.63.87,7.09Zm-48.09-17,4.23-.51-.23,3.78-4.22.52ZM388,270.83l.9-13.29,4.28-.53-1,13.3,7.19-.88,1-13.3,3.91-.48-.73-5.89-2.76.34.27-3.8,3.5-.42-.73-5.9-2.34.29.86-12.38-7.2.88-.91,12.39-4.22.52.91-12.39-7.25.89-.86,12.38-4,.49.72,5.89,2.82-.34-.28,3.79-3.54.43.72,5.9,2.4-.3-.91,13.29Z"/><polygon class="cls-2" points="148.94 92.42 148.94 24.64 138.97 24.64 138.97 8.53 175.69 8.53 175.69 24.64 165.73 24.64 165.73 92.42 148.94 92.42"/><polygon class="cls-2" points="227.84 92.42 227.84 8.53 245.13 8.53 252.85 48.67 252.85 8.53 269.06 8.53 269.06 92.42 252.65 92.42 244.25 50.43 244.25 92.42 227.84 92.42"/><polygon class="cls-4" points="1.66 190.09 1.66 106.19 18.46 106.19 18.46 175.83 35.74 175.83 35.74 190.09 1.66 190.09"/><polygon class="cls-4" points="41.99 130.81 45.12 119.48 39.06 119.48 39.06 105.31 56.94 105.31 56.94 119.09 52.05 130.81 41.99 130.81"/><path class="cls-4" d="M79.4,163.13H87L83.3,120.45h-.78Zm-18.56,27L69,106.19H97.37l8,83.9H89.46l-1.18-13.58H78.13l-1,13.58Z"/><rect class="cls-4" x="203.62" y="106.19" width="16.21" height="83.89" transform="translate(-9.7 14.94) rotate(-3.95)"/><polygon class="cls-4" points="319.16 190.09 319.16 106.19 335.96 106.19 335.96 175.83 353.24 175.83 353.24 190.09 319.16 190.09"/><polygon class="cls-4" points="359.29 190.09 359.29 122.31 349.33 122.31 349.33 106.19 386.05 106.19 386.05 122.31 376.09 122.31 376.09 190.09 359.29 190.09"/><polygon class="cls-4" points="483.62 106.19 483.62 190.09 518.29 190.09 518.29 173.78 500.71 173.78 500.71 154.54 516.53 154.54 516.53 138.72 500.71 138.72 500.71 122.41 517.21 122.41 517.21 106.19 483.62 106.19"/><path class="cls-2" d="M183.41,218.12h.78l3.71,42.67h-7.61Zm-13.57-14.26-8.11,83.89H178l1-13.58h10.15l1.18,13.58h15.91l-8-83.89Z"/><polygon class="cls-2" points="211.34 203.86 211.34 287.75 245.43 287.75 245.43 273.49 228.14 273.49 228.14 203.86 211.34 203.86"/><polygon class="cls-2" points="322.58 203.86 322.58 244 314.86 203.86 297.58 203.86 297.58 287.75 313.98 287.75 313.98 245.75 322.38 287.75 338.79 287.75 338.79 203.86 322.58 203.86"/><path class="cls-2" d="M5.08,87.54Q0,81.87,0,69.28V61.07H16.5V71.52q0,6.26,4,6.25a3.46,3.46,0,0,0,3.12-1.32A8.26,8.26,0,0,0,24.51,72a20.22,20.22,0,0,0-1-6.79,15,15,0,0,0-2.49-4.49c-1-1.2-2.82-3.08-5.42-5.61L8.4,47.89Q0,39.69,0,29.72,0,19,4.93,13.36T19.34,7.75q11.33,0,16.31,6t5,18.8H23.54l-.1-5.77a3.66,3.66,0,0,0-.93-2.63,3.41,3.41,0,0,0-2.59-1A3.79,3.79,0,0,0,17,24.25a4.21,4.21,0,0,0-1,2.93q0,4.11,4.69,8.5l9.76,9.38a55.23,55.23,0,0,1,5.67,6.3,24.77,24.77,0,0,1,3.61,7A30.23,30.23,0,0,1,41.12,68q0,12.4-4.54,18.8t-15,6.39q-11.41,0-16.5-5.66"/><path class="cls-2" d="M65.85,76a15.14,15.14,0,0,0,1.61-5.29l6.21-40.55a11.14,11.14,0,0,0,0-4.5,2.9,2.9,0,0,0-2.68-2.14q-4.16-.63-5.11,5.64L59.62,69.6a13.31,13.31,0,0,0,0,5.53,3.24,3.24,0,0,0,2.91,2.33A3,3,0,0,0,65.85,76M45.91,84.24q-4.27-6.93-2.56-18l6-39.48Q51.05,16,57.09,11.36T73.18,8.24q10,1.55,14.42,7.8t2.73,17L84.27,72.49Q82.56,83.68,76.41,89T60.23,92.71q-10-1.54-14.32-8.47"/><path class="cls-2" d="M115.24,39.59q3.53,0,3.52-7.62a31.88,31.88,0,0,0-.29-5,3.76,3.76,0,0,0-1.08-2.3,3.51,3.51,0,0,0-2.25-.63h-3.9V39.59ZM94.15,8.53h25.78q6.15,0,9.52,2.78A13.82,13.82,0,0,1,134,19.13,58.15,58.15,0,0,1,135.16,32q0,7.13-1.85,11.13a10.45,10.45,0,0,1-6.44,5.57,7.76,7.76,0,0,1,5.51,3.81,16.7,16.7,0,0,1,1.71,8.2l-.19,31.74H117.49V59.61c0-2.35-.46-3.84-1.37-4.49s-2.57-1-5-1V92.42h-17Z"/><path class="cls-2" d="M207,67.69a15.37,15.37,0,0,0,.31-5.51l-3.5-40.87a11.6,11.6,0,0,0-1.11-4.37,2.92,2.92,0,0,0-3.11-1.45q-4.19.36-3.65,6.69L199.46,63a13.12,13.12,0,0,0,1.34,5.37,3.24,3.24,0,0,0,3.37,1.58A3,3,0,0,0,207,67.69M189.58,80.41q-5.79-5.73-6.74-16.92l-3.41-39.8q-.93-10.8,3.86-16.75T198.19.13Q208.32-.74,214,4.31t6.65,15.85L224.1,60q1,11.28-3.77,17.86t-14.85,7.45q-10.11.87-15.9-4.86"/><path class="cls-2" d="M279.9,87.54q-5.08-5.67-5.08-18.26V61.07h16.5V71.52q0,6.26,4,6.25a3.46,3.46,0,0,0,3.12-1.32,8.26,8.26,0,0,0,.88-4.44,20.22,20.22,0,0,0-1-6.79,15.26,15.26,0,0,0-2.49-4.49c-1-1.2-2.82-3.08-5.42-5.61l-7.23-7.23q-8.4-8.2-8.4-18.17,0-10.74,4.93-16.36t14.41-5.61q11.32,0,16.31,6t5,18.8H298.36l-.1-5.77a3.66,3.66,0,0,0-.93-2.63,3.41,3.41,0,0,0-2.59-1,3.79,3.79,0,0,0-2.93,1.07,4.21,4.21,0,0,0-1,2.93q0,4.11,4.68,8.5l9.77,9.38a55.23,55.23,0,0,1,5.67,6.3,24.77,24.77,0,0,1,3.61,7A30.23,30.23,0,0,1,315.94,68q0,12.4-4.54,18.8t-15,6.39q-11.43,0-16.5-5.66"/><path class="cls-4" d="M114.21,184.47q-4.44-6.39-4.44-19.39V129q0-11.62,5.17-17.58t15.44-6q8.3,0,12.89,3.32a17.15,17.15,0,0,1,6.35,9.67,62.74,62.74,0,0,1,1.75,16.31H135v-7.52a10.76,10.76,0,0,0-.83-4.69,3.06,3.06,0,0,0-3-1.66c-3.19,0-4.79,2.09-4.79,6.25v40.63a13.3,13.3,0,0,0,1,5.76,4,4,0,0,0,6.83,0,13.15,13.15,0,0,0,1-5.76v-12h-4.49V141.25h20.51v48.84h-6.74l-2.83-7q-4.5,7.81-13.87,7.82-9.09,0-13.53-6.4"/><path class="cls-4" d="M178.91,137.25q3.53,0,3.52-7.62a31.88,31.88,0,0,0-.29-5,3.73,3.73,0,0,0-1.08-2.29,3.44,3.44,0,0,0-2.24-.64h-3.91v15.53Zm-21.09-31.06H183.6q6.15,0,9.52,2.79a13.79,13.79,0,0,1,4.54,7.81,57.48,57.48,0,0,1,1.18,12.84q0,7.14-1.86,11.14a10.43,10.43,0,0,1-6.44,5.56,7.74,7.74,0,0,1,5.51,3.81,16.74,16.74,0,0,1,1.71,8.21l-.19,31.74H181.16V157.27c0-2.34-.45-3.84-1.37-4.49s-2.57-1-5-1v38.29h-17Z"/><path class="cls-4" d="M231.41,185.11q-5.52-5.78-5.52-15.83V130.61q0-12.5,5-18.85t15.62-6.35q9.28,0,14.95,5.08t5.66,14.65v14.45H250.4v-12.4c0-2.41-.29-4.07-.88-5a3.32,3.32,0,0,0-3-1.37,3.17,3.17,0,0,0-3.07,1.57,10,10,0,0,0-.83,4.59v42.09a9.2,9.2,0,0,0,1,4.83,3.26,3.26,0,0,0,2.93,1.52q3.91,0,3.91-6.35V154h16.9v15.82q0,21.1-21.2,21.1-9.18,0-14.69-5.76"/><path class="cls-4" d="M274.31,183.73q-4.56-6.24-3.68-17.72l4.68-61.25L291.52,106l-4.63,60.57a20,20,0,0,0,.3,6.29,3.58,3.58,0,0,0,6.6.56,19.72,19.72,0,0,0,1.26-6.22l4.62-60.57,16.21,1.25-4.67,61.25q-.88,11.49-6.33,17t-15.73,4.66q-10.29-.78-14.84-7"/><path class="cls-1" d="M398.52,190.8q-5.38-5.52-6.13-17l-3.94-61.25,16.24-1.05,3.9,60.57a19.58,19.58,0,0,0,1.18,6.19,3.58,3.58,0,0,0,6.61-.38,19.69,19.69,0,0,0,.38-6.33L412.86,111l16.24-1L433,171.17q.73,11.49-3.89,17.66t-14.94,6.83q-10.31.66-15.69-4.86"/><path class="cls-4" d="M458.13,137.25c2.34,0,3.52-2.54,3.52-7.62a30.44,30.44,0,0,0-.3-5,3.67,3.67,0,0,0-1.07-2.29,3.45,3.45,0,0,0-2.25-.64h-3.9v15.53ZM437,106.19h25.79q6.15,0,9.52,2.79a13.79,13.79,0,0,1,4.54,7.81,58.15,58.15,0,0,1,1.17,12.84q0,7.14-1.85,11.14a10.42,10.42,0,0,1-6.45,5.56,7.76,7.76,0,0,1,5.52,3.81,16.74,16.74,0,0,1,1.71,8.21l-.2,31.74h-16.4V157.27c0-2.34-.46-3.84-1.37-4.49s-2.57-1-5-1v38.29H437Z"/><path class="cls-2" d="M21.49,272.91q4.59,0,4.59-4.5V225.15a15.42,15.42,0,0,0-.44-4.25A2.87,2.87,0,0,0,24,219a10.2,10.2,0,0,0-3.62-.48H18.56v54.4ZM1.66,203.86H24.81q9,0,13.47,5t4.59,14.74l.2,39.27q.09,12.4-4.3,18.65t-14.55,6.25H1.66Z"/><path class="cls-2" d="M56.67,283.64q-5.46-5.46-6.33-16.93l-4.66-61.19,16.26-1.23,4.61,60.5A19.81,19.81,0,0,0,67.8,271a3.6,3.6,0,0,0,6.63-.46,19.51,19.51,0,0,0,.3-6.33l-4.61-60.5,16.26-1.24L91,263.61q.88,11.49-3.69,17.7t-14.9,7q-10.32.78-15.78-4.67"/><path class="cls-2" d="M122.37,282.87q-5.09-5.67-5.08-18.27v-8.2H133.8v10.45q0,6.25,4,6.25a3.49,3.49,0,0,0,3.13-1.32,8.41,8.41,0,0,0,.88-4.44,20.11,20.11,0,0,0-1-6.79,14.7,14.7,0,0,0-2.49-4.49q-1.51-1.81-5.42-5.62l-7.23-7.22q-8.4-8.21-8.4-18.17,0-10.74,4.94-16.36t14.4-5.61q11.33,0,16.31,6t5,18.8H140.83l-.1-5.76a3.67,3.67,0,0,0-.93-2.64,3.38,3.38,0,0,0-2.58-1,3.77,3.77,0,0,0-2.93,1.07,4.15,4.15,0,0,0-1,2.93q0,4.11,4.69,8.5l9.76,9.37a57,57,0,0,1,5.67,6.3,24.65,24.65,0,0,1,3.61,7,30.23,30.23,0,0,1,1.37,9.62q0,12.41-4.54,18.8t-15,6.4q-11.43,0-16.51-5.66"/><path class="cls-2" d="M266.68,271.09a15.2,15.2,0,0,0,2.14-5.09l10.32-39.7a11.32,11.32,0,0,0,.41-4.49,2.9,2.9,0,0,0-2.45-2.4q-4.07-1.07-5.66,5.09l-10.31,39.6a13.25,13.25,0,0,0-.52,5.51,3.23,3.23,0,0,0,2.65,2.61,3,3,0,0,0,3.42-1.13M246,277.27q-3.54-7.33-.71-18.2l10.06-38.66q2.73-10.49,9.22-14.5t16.32-1.46q9.83,2.56,13.55,9.23t1,17.16l-10.06,38.65q-2.85,11-9.5,15.59t-16.48,2.07q-9.84-2.55-13.38-9.88"/></g></g></svg>